<svg id="Capa_1" enable-background="new 0 0 512.001 512.001" height="512" viewBox="0 0 512.001 512.001" width="512" xmlns="http://www.w3.org/2000/svg"><path d="m459.407 132.928-128.534-128.534c-2.813-2.813-6.628-4.393-10.606-4.393h-216.9c-30.419 0-55.167 24.748-55.167 55.167v401.666c0 30.419 24.747 55.167 55.166 55.167h305.267c30.419 0 55.167-24.748 55.167-55.167v-313.3c0-3.978-1.581-7.794-4.393-10.606z" fill="#e7f0ef"/><path d="m459.407 132.928-128.534-128.534c-2.813-2.813-6.628-4.393-10.606-4.393h-64.266v512h152.632c30.419 0 55.167-24.748 55.167-55.167v-313.3c0-3.978-1.581-7.794-4.393-10.606z" fill="#c5e1e6"/><path d="m459.407 132.928-128.534-128.534c-4.289-4.29-10.741-5.574-16.347-3.252-5.605 2.322-9.26 7.792-9.26 13.858v88.367c0 30.419 24.747 55.166 55.166 55.166h88.368c6.067 0 11.536-3.654 13.858-9.26 2.322-5.604 1.039-12.055-3.251-16.345z" fill="#8db9c4"/><g fill="#3d5959"><path d="m384.533 447.733h-257.066c-8.284 0-15-6.716-15-15s6.716-15 15-15h257.066c8.284 0 15 6.716 15 15s-6.715 15-15 15z"/><path d="m384.533 383.468h-257.066c-8.284 0-15-6.716-15-15s6.716-15 15-15h257.066c8.284 0 15 6.716 15 15s-6.715 15-15 15z"/><path d="m384.533 319.2h-257.066c-8.284 0-15-6.716-15-15s6.716-15 15-15h257.066c8.284 0 15 6.716 15 15s-6.715 15-15 15z"/><path d="m320.267 254.934h-192.8c-8.284 0-15-6.715-15-15 0-8.284 6.716-15 15-15h192.8c8.284 0 15 6.716 15 15 0 8.285-6.716 15-15 15z"/></g><path d="m223.866 64.267h-96.399c-8.284 0-15 6.716-15 15v96.399c0 8.284 6.716 15 15 15h96.399c8.284 0 15-6.716 15-15v-96.399c0-8.284-6.715-15-15-15z" fill="#ff9f00"/><path d="m384.533 447.733c8.284 0 15-6.716 15-15s-6.716-15-15-15h-128.532v30z" fill="#293939"/><path d="m399.533 368.468c0-8.284-6.716-15-15-15h-128.532v30h128.532c8.285 0 15-6.716 15-15z" fill="#293939"/><path d="m399.533 304.2c0-8.284-6.716-15-15-15h-128.532v30h128.532c8.285 0 15-6.716 15-15z" fill="#293939"/><path d="m335.267 239.934c0-8.284-6.716-15-15-15h-64.266v30h64.266c8.284 0 15-6.715 15-15z" fill="#293939"/></svg>