<svg id="Capa_1" enable-background="new 0 0 512 512" height="512" viewBox="0 0 512 512" width="512" xmlns="http://www.w3.org/2000/svg"><path d="m505.362 181.783-207.623-139.427c-11.326-7.551-26.15-11.71-41.741-11.71-15.592 0-30.416 4.159-41.78 11.737l-207.58 139.399c-4.163 2.797-6.655 7.488-6.638 12.504.018 5.016 2.539 9.691 6.722 12.458l207.58 137.373c2.456 1.625 5.334 2.491 8.278 2.491h66.841c2.944 0 5.823-.866 8.278-2.491l207.579-137.372c4.183-2.768 6.704-7.442 6.722-12.458.018-5.015-2.475-9.707-6.638-12.504z" fill="#ff9f00"/><path d="m505.362 181.783-207.623-139.427c-11.325-7.551-26.148-11.709-41.739-11.71v315.962h33.421c2.944 0 5.823-.866 8.278-2.491l207.579-137.372c4.183-2.768 6.704-7.442 6.722-12.458.018-5.015-2.475-9.707-6.638-12.504z" fill="#ff641a"/><path d="m408.632 113.955h-305.263c-8.284 0-15 6.716-15 15v147.822c0 4.854 2.349 9.407 6.303 12.222l119.211 84.831c2.541 1.808 5.58 2.778 8.697 2.778h66.841c3.117 0 6.157-.971 8.696-2.778l119.211-84.83c3.955-2.815 6.304-7.368 6.304-12.222v-147.823c0-8.284-6.716-15-15-15z" fill="#54e360"/><path d="m408.632 113.955h-152.632v262.653h33.421c3.117 0 6.157-.971 8.696-2.778l119.211-84.83c3.955-2.815 6.304-7.368 6.304-12.222v-147.823c0-8.284-6.716-15-15-15z" fill="#1fbf66"/><path d="m256 194.29c-25.99 0-47.134 21.145-47.134 47.134s21.144 47.133 47.134 47.133 47.135-21.144 47.135-47.133-21.145-47.134-47.135-47.134z" fill="#00ab5e"/><path d="m103.369 224.291c52.457 0 95.155-42.591 95.332-95.009.003-.108.004-.218.004-.327 0-5.103-.408-10.112-1.184-15h-94.152c-8.284 0-15 6.716-15 15v94.151c4.888.777 9.897 1.185 15 1.185z" fill="#00ab5e"/><path d="m408.632 113.955h-94.151c-.776 4.888-1.185 9.897-1.185 15 0 52.458 42.59 95.155 95.009 95.332.109.003.218.004.327.004 5.103 0 10.112-.408 15-1.184v-94.152c0-8.284-6.716-15-15-15z" fill="#00884a"/><path d="m504.1 181.023c-4.863-2.615-10.771-2.345-15.378.704l-207.621 137.4c-6.36 4.239-15.509 6.671-25.1 6.671-9.592 0-18.741-2.432-25.143-6.699l-207.58-137.372c-4.606-3.049-10.513-3.321-15.378-.704-4.865 2.614-7.9 7.69-7.9 13.213v231.953c0 30.418 24.749 55.165 55.17 55.165h401.665c30.418 0 55.165-24.747 55.165-55.165v-231.953c0-5.522-3.035-10.598-7.9-13.213z" fill="#ffd400"/><path d="m504.1 181.023c-4.863-2.615-10.771-2.345-15.378.704l-207.621 137.4c-6.36 4.239-15.509 6.671-25.1 6.671h-.001v155.555h200.835c30.418 0 55.165-24.747 55.165-55.165v-231.952c0-5.522-3.035-10.598-7.9-13.213z" fill="#ff9f04"/><path d="m256 194.29v94.267c25.99 0 47.135-21.144 47.135-47.133s-21.145-47.134-47.135-47.134z" fill="#00884a"/></svg>