<svg id="Capa_1" enable-background="new 0 0 512 512" height="512" viewBox="0 0 512 512" width="512" xmlns="http://www.w3.org/2000/svg"><path d="m207.803 63.203h-88.369c-22.092 0-40.166 18.074-40.166 40.164v353.466c0 22.092 18.074 40.167 40.166 40.167h273.133c22.092 0 40.166-18.075 40.166-40.167v-353.466c0-22.09-18.074-40.164-40.166-40.164h-88.357" fill="#e7f0ef"/><path d="m392.566 63.203h-88.357-48.21v433.797h136.567c22.092 0 40.166-18.075 40.166-40.167v-353.466c0-22.09-18.074-40.164-40.166-40.164z" fill="#c5e1e6"/><path d="m392.566 512h-273.132c-30.418 0-55.166-24.748-55.166-55.167v-353.466c0-30.418 24.748-55.164 55.166-55.164h88.369c8.284 0 15 6.716 15 15s-6.716 15-15 15h-88.369c-13.877 0-25.166 11.288-25.166 25.164v353.466c0 13.877 11.289 25.167 25.166 25.167h273.133c13.877 0 25.166-11.29 25.166-25.167v-353.466c0-13.876-11.289-25.164-25.166-25.164h-88.357c-8.284 0-15-6.716-15-15s6.716-15 15-15h88.357c30.418 0 55.166 24.746 55.166 55.164v353.466c-.001 30.419-24.749 55.167-55.167 55.167z" fill="#ff8a3c"/><path d="m392.566 48.203h-88.357c-8.284 0-15 6.716-15 15s6.716 15 15 15h88.357c13.877 0 25.166 11.288 25.166 25.164v353.466c0 13.877-11.289 25.167-25.166 25.167h-136.567v30h136.567c30.418 0 55.166-24.748 55.166-55.167v-353.466c0-30.418-24.748-55.164-55.166-55.164z" fill="#e56705"/><g fill="#54e360"><path d="m174.603 447.732c-3.838 0-7.676-1.464-10.604-4.392l-16.07-16.064c-5.858-5.857-5.86-15.354-.004-21.213s15.354-5.859 21.213-.004l5.464 5.462 21.528-21.528c5.857-5.857 15.355-5.857 21.213 0s5.858 15.355 0 21.213l-32.133 32.133c-2.929 2.929-6.769 4.393-10.607 4.393z"/><path d="m174.603 351.333c-3.838 0-7.676-1.464-10.604-4.392l-16.07-16.064c-5.858-5.856-5.86-15.353-.005-21.213 5.857-5.858 15.354-5.861 21.214-.004l5.464 5.461 21.527-21.529c5.859-5.857 15.355-5.857 21.214 0s5.858 15.354.001 21.213l-32.133 32.134c-2.93 2.929-6.769 4.394-10.608 4.394z"/><path d="m174.603 254.936c-3.839 0-7.677-1.464-10.605-4.393l-16.07-16.067c-5.858-5.857-5.859-15.354-.002-21.213s15.355-5.859 21.213-.002l5.464 5.463 21.526-21.528c5.859-5.857 15.355-5.857 21.214 0 5.858 5.857 5.858 15.354.001 21.213l-32.133 32.134c-2.93 2.929-6.769 4.393-10.608 4.393z"/></g><path d="m368.467 447.732h-97.463c-8.284 0-15-6.716-15-15s6.716-15 15-15h97.463c8.284 0 15 6.716 15 15 0 8.285-6.716 15-15 15z" fill="#293939"/><path d="m368.467 351.333h-97.463c-8.284 0-15-6.716-15-15s6.716-15 15-15h97.463c8.284 0 15 6.716 15 15s-6.716 15-15 15z" fill="#293939"/><path d="m368.467 254.936h-97.463c-8.284 0-15-6.716-15-15s6.716-15 15-15h97.463c8.284 0 15 6.716 15 15 0 8.285-6.716 15-15 15z" fill="#293939"/><path d="m317.399 48.203c-6.751-27.634-31.718-48.203-61.399-48.203-29.682 0-54.65 20.569-61.4 48.203h-50v55.164c0 30.419 24.748 55.166 55.168 55.166h112.467c30.418 0 55.166-24.747 55.166-55.166v-55.164z" fill="#c5e1e6"/><path d="m317.399 48.203c-6.751-27.634-31.718-48.203-61.399-48.203h-.001v158.533h56.235c30.418 0 55.166-24.747 55.166-55.166v-55.164z" fill="#8db9c4"/></svg>