<svg id="Capa_1" enable-background="new 0 0 511.997 511.997" height="512" viewBox="0 0 511.997 511.997" width="512" xmlns="http://www.w3.org/2000/svg"><path d="m459.585 276.608c4.166-6.741 8.014-13.665 6.966-14.713l-128.783-128.815c-14.408-14.406-31.088-26.402-49.189-35.524l-11.22 11.22c-7.266-3.407-14.754-6.331-22.419-8.699-1.342-.414-2.734-.638-4.139-.665l-83.126-1.599-93.413-93.412c-2.814-2.814-6.628-4.393-10.607-4.393l-48.654-.002c-3.979 0-7.794 1.58-10.607 4.394s-4.393 6.628-4.393 10.606l-.001 178.555c0 3.979 1.58 7.794 4.393 10.607l26.797 26.799c-6.704 31.201-4.84 63.431 5.495 93.75 1.048 3.074 3.065 5.724 5.749 7.554l211.553 144.201 21.708 21.719c8.899 8.902 20.736 13.805 33.327 13.804 12.589-.001 24.426-4.903 33.328-13.806l.004-.004c8.745-8.75 13.318-20.176 13.708-31.721 11.545-.391 22.97-4.965 31.715-13.711 8.754-8.754 13.331-20.178 13.722-31.723 11.546-.391 22.969-4.969 31.725-13.725 15.628-15.632 17.959-39.605 6.99-57.729 5.818-2.34 11.158-5.855 15.728-10.426 17.061-17.066 18.268-44.061 3.643-62.542z" fill="#fdd1a3"/><g fill="#ffbb85"><path d="m459.585 276.608c4.166-6.741 8.014-13.665 6.966-14.713l-128.783-128.815c-14.408-14.406-31.088-26.402-49.189-35.524l-11.22 11.22c-7.266-3.407-14.754-6.331-22.419-8.699-1.342-.414-2.734-.638-4.139-.665l-83.126-1.599-93.413-93.412c-2.814-2.814-6.628-4.393-10.607-4.393l-48.654-.002c-3.979 0-7.794 1.58-10.607 4.394s-4.393 6.628-4.393 10.606v4.528l401.498 401.497c11.546-.391 22.969-4.969 31.725-13.725 15.628-15.632 17.959-39.605 6.99-57.729 5.818-2.34 11.158-5.855 15.728-10.426 17.061-17.067 18.268-44.062 3.643-62.543z"/><path d="m275.703 386.101c-5.858 5.858-5.858 15.355-.001 21.213l76.459 76.462c2.395-5.51 3.701-11.394 3.901-17.311 5.917-.2 11.8-1.508 17.31-3.904l-76.455-76.459c-5.857-5.858-15.356-5.86-21.214-.001z"/><path d="m321.137 340.669c-.001 0 0 0 0 0-5.858 5.857-5.858 15.355-.001 21.213l76.457 76.46c2.398-5.511 3.707-11.394 3.906-17.311 5.916-.199 11.796-1.508 17.306-3.904l-76.455-76.457c-5.858-5.86-15.356-5.86-21.213-.001z"/></g><path d="m362.204 271.564v.001c-5.858 5.857-5.858 15.355 0 21.213l84.668 84.671c.7-9.602-1.518-19.379-6.658-27.871 4.762-1.915 9.197-4.631 13.158-8.056l-69.955-69.957c-5.857-5.858-15.354-5.858-21.213-.001z" fill="#f5a86c"/><path d="m296.929 386.101c-8.774-8.774-20.177-13.349-31.697-13.743-.395-11.522-4.969-22.928-13.744-31.704-8.775-8.774-20.179-13.349-31.7-13.743-.395-11.52-4.97-22.922-13.745-31.696-8.768-8.768-20.162-13.343-31.676-13.743-.403-11.98-5.247-23.188-13.766-31.705-18.376-18.373-48.278-18.374-66.658.001l-45.443 45.444c-18.373 18.381-18.372 48.283.002 66.657 8.518 8.517 19.721 13.36 31.697 13.766.4 11.515 4.975 22.91 13.744 31.68 8.511 8.511 19.709 13.355 31.682 13.763.409 11.971 5.253 23.167 13.764 31.678 8.775 8.774 20.178 13.35 31.697 13.744.395 11.523 4.971 22.929 13.748 31.706 18.38 18.367 48.28 18.364 66.654-.008l45.443-45.44c8.903-8.902 13.806-20.74 13.806-33.33-.002-12.594-4.906-24.43-13.808-33.327z" fill="#a34f3e"/><path d="m265.231 372.357c-.395-11.522-4.969-22.928-13.744-31.704-8.771-8.771-20.172-13.346-31.689-13.742l-94.174 94.167c.41 11.97 5.254 23.165 13.764 31.676 8.775 8.774 20.178 13.35 31.697 13.744.395 11.523 4.971 22.929 13.748 31.706 18.38 18.367 48.28 18.364 66.654-.008l45.443-45.44c8.903-8.902 13.806-20.74 13.806-33.33-.001-12.592-4.905-24.428-13.808-33.325-8.774-8.775-20.176-13.349-31.697-13.744z" fill="#873f2e"/><path d="m261.313 355.059-107.521 107.521c5.509 2.404 11.384 3.716 17.293 3.918.203 5.911 1.514 11.787 3.918 17.297l107.522-107.52c-5.509-2.405-11.384-3.714-17.293-3.917-.203-5.912-1.513-11.79-3.919-17.299z" fill="#6d3326"/><path d="m219.787 326.91c-.203-5.909-1.514-11.785-3.92-17.295l-107.542 107.545c5.405 2.369 11.252 3.711 17.299 3.916.207 6.045 1.547 11.891 3.917 17.295l107.541-107.544c-5.509-2.405-11.385-3.714-17.295-3.917z" fill="#873f2e"/><path d="m174.366 281.471c-.204-6.054-1.545-11.909-3.918-17.32l-107.565 107.564c5.411 2.373 11.264 3.714 17.315 3.919.205 5.903 1.516 11.772 3.918 17.274l107.521-107.521c-5.501-2.401-11.369-3.711-17.271-3.916z" fill="#873f2e"/><path d="m511.997 117.863-.001-102.857c0-8.283-6.716-14.998-14.999-15l-124.354-.004c-3.978 0-7.795 1.581-10.607 4.395l-16.057 16.059c-26.701-5.715-54.529-5.156-81.017 1.685-30.231 7.808-57.94 23.663-80.133 45.853l-23.486 23.486-44.678 44.678c-8.902 8.902-13.805 20.739-13.806 33.329 0 12.592 4.902 24.429 13.804 33.328 8.902 8.904 20.739 13.809 33.33 13.809 12.588-.002 24.424-4.904 33.326-13.807l71.185-71.185 22.856-22.856c18.406 8.629 35.344 20.455 49.803 34.912l128.779 128.813c2.14 2.14 4.019 4.439 5.658 6.854 21.416-37.452 28.291-81.679 19.2-124.079l26.803-26.807c2.814-2.813 4.394-6.627 4.394-10.606z" fill="#a34f3e"/><path d="m507.597 4.393-159.872 159.862 108.218 108.246c2.14 2.14 4.019 4.439 5.658 6.854 21.416-37.452 28.291-81.679 19.2-124.079l26.803-26.807c2.813-2.813 4.394-6.627 4.394-10.606l-.001-102.857c-.001-4.146-1.683-7.897-4.4-10.613z" fill="#873f2e"/><path d="m125.624 421.078c.207 6.044 1.547 11.89 3.917 17.293l107.541-107.544c-5.506-2.404-11.378-3.712-17.284-3.916z" fill="#6d3326"/><path d="m342.35 340.67c-5.858-5.859-15.356-5.859-21.214-.001l80.362 80.362c5.916-.199 11.796-1.508 17.306-3.904z" fill="#f5a86c"/></svg>