<svg id="Capa_1" enable-background="new 0 0 512 512" height="512" viewBox="0 0 512 512" width="512" xmlns="http://www.w3.org/2000/svg"><path d="m418.321 158.536c-2.36 0-4.755-.559-6.988-1.737l-139.613-73.678c-7.327-3.866-10.132-12.939-6.265-20.267 3.867-7.326 12.939-10.134 20.267-6.265l139.613 73.678c7.327 3.866 10.132 12.939 6.265 20.267-2.688 5.094-7.893 8.002-13.279 8.002z" fill="#293939"/><path d="m93.677 158.536c-5.386 0-10.591-2.908-13.278-8.002-3.867-7.327-1.063-16.4 6.265-20.267l139.614-73.677c7.327-3.867 16.401-1.061 20.267 6.265 3.867 7.327 1.063 16.4-6.265 20.267l-139.615 73.678c-2.232 1.177-4.628 1.736-6.988 1.736z" fill="#3d5959"/><path d="m456.834 128.533h-401.666c-30.42 0-55.168 24.748-55.168 55.167v273.133c0 30.419 24.748 55.167 55.168 55.167h401.666c30.418 0 55.166-24.748 55.166-55.167v-273.133c0-30.419-24.748-55.167-55.166-55.167z" fill="#e7f0ef"/><path d="m456.834 128.533h-200.834v383.467h200.834c30.418 0 55.166-24.748 55.166-55.167v-273.133c0-30.419-24.748-55.167-55.166-55.167z" fill="#c5e1e6"/><path d="m304.199 287.066c-8.284 0-15-6.716-15-15v-49.266h-66.398v49.267c0 8.284-6.716 15-15 15s-15-6.716-15-15v-64.267c0-8.284 6.716-15 15-15h96.398c8.284 0 15 6.716 15 15v64.267c0 8.284-6.716 14.999-15 14.999z" fill="#ca6d36"/><path d="m289.199 272.066c0 8.284 6.716 15 15 15s15-6.716 15-15v-64.266c0-8.284-6.716-15-15-15h-48.199v30h33.199z" fill="#b24d00"/><path d="m328.301 257.066h-144.6c-30.42 0-55.168 24.747-55.168 55.166v80.334c0 30.419 24.748 55.166 55.168 55.166h144.6c30.418 0 55.166-24.747 55.166-55.166v-80.334c0-30.418-24.748-55.166-55.166-55.166z" fill="#ff8a3c"/><path d="m328.301 257.066h-72.301v190.666h72.301c30.418 0 55.166-24.747 55.166-55.166v-80.334c0-30.418-24.748-55.166-55.166-55.166z" fill="#e56705"/><path d="m128.533 321.333h254.934v30h-254.934z" fill="#ca6d36"/><path d="m256 321.333h127.467v30h-127.467z" fill="#b24d00"/><path d="m256 0c-25.989 0-47.133 21.144-47.133 47.133s21.143 47.134 47.133 47.134 47.133-21.145 47.133-47.134-21.144-47.133-47.133-47.133z" fill="#c5e1e6"/><path d="m303.133 47.133c0-25.989-21.144-47.133-47.133-47.133v94.267c25.989 0 47.133-21.145 47.133-47.134z" fill="#8db9c4"/></svg>