<svg id="Capa_1" enable-background="new 0 0 512 512" height="512" viewBox="0 0 512 512" width="512" xmlns="http://www.w3.org/2000/svg"><path d="m47.134 128.533c-25.989 0-47.134 21.144-47.134 47.133s21.145 47.134 47.134 47.134 47.133-21.145 47.133-47.134-21.144-47.133-47.133-47.133z" fill="#ffcdbe"/><path d="m111.4 353.467h-17.133v-49.268c0-25.989-21.144-47.133-47.133-47.133s-47.134 21.144-47.134 47.133v96.4c0 25.989 21.145 47.134 47.134 47.134h17.133v17.134c0 25.989 21.143 47.133 47.133 47.133s47.134-21.144 47.134-47.133v-64.267c0-25.99-21.143-47.133-47.134-47.133z" fill="#ff5b5b"/><path d="m464.867 128.533c-25.99 0-47.134 21.144-47.134 47.133s21.144 47.134 47.134 47.134c25.989 0 47.133-21.145 47.133-47.134s-21.144-47.133-47.133-47.133z" fill="#ffbb85"/><path d="m464.867 257.066c-25.99 0-47.134 21.144-47.134 47.133v49.268h-17.133c-25.989 0-47.134 21.144-47.134 47.133v64.268c0 25.989 21.145 47.133 47.134 47.133s47.133-21.144 47.133-47.133v-17.134h17.134c25.989 0 47.133-21.145 47.133-47.134v-96.4c0-25.99-21.144-47.134-47.133-47.134z" fill="#76e2f8"/><path d="m344.367 241h-176.733c-25.989 0-47.134 21.144-47.134 47.133s21.145 47.134 47.134 47.134h41.233v161.733c0 8.284 6.716 15 15 15h64.267c8.284 0 15-6.716 15-15v-161.733h41.233c25.989 0 47.133-21.145 47.133-47.134s-21.144-47.133-47.133-47.133z" fill="#ff8a3c"/><path d="m328.301 0h-144.601c-30.419 0-55.166 24.747-55.166 55.166v32.134c0 30.419 21.144 55.167 47.133 55.167h17.134v17.133c0 20.332 12.372 29.434 24.633 29.434 9.476 0 19.358-5.079 29.375-15.096l31.472-31.471h50.021c30.418 0 55.166-24.748 55.166-55.167v-32.134c-.001-30.419-24.749-55.166-55.167-55.166z" fill="#e7f0ef"/><path d="m344.367 241h-88.358v271h32.125c8.284 0 15-6.716 15-15v-161.733h41.233c25.989 0 47.133-21.145 47.133-47.134s-21.144-47.133-47.133-47.133z" fill="#e56705"/><path d="m328.301 142.467c30.418 0 55.166-24.748 55.166-55.167v-32.134c0-30.419-24.748-55.166-55.166-55.166h-72.292v164.737l22.272-22.271h50.02z" fill="#c5e1e6"/></svg>