<svg id="Capa_1" enable-background="new 0 0 512 512" height="512" viewBox="0 0 512 512" width="512" xmlns="http://www.w3.org/2000/svg"><path d="m4.394 486.394 139.156-139.157c5.857-5.857 15.355-5.857 21.213 0s5.858 15.355 0 21.213l-139.156 139.157c-2.929 2.928-6.768 4.393-10.607 4.393s-7.678-1.465-10.606-4.394c-5.859-5.857-5.859-15.355 0-21.212z" fill="#ff8a3c"/><path d="m4.394 507.607c2.928 2.928 6.767 4.393 10.606 4.393s7.678-1.465 10.606-4.394l139.157-139.156c5.858-5.857 5.858-15.356 0-21.213z" fill="#e56705"/><path d="m143.551 63.216c40.765-40.766 94.965-63.216 152.617-63.216 57.65 0 111.85 22.45 152.615 63.216s63.217 94.966 63.217 152.617-22.451 111.852-63.217 152.617-94.965 63.216-152.615 63.216c-57.652 0-111.853-22.45-152.617-63.216-40.766-40.766-63.217-94.966-63.217-152.617s22.451-111.852 63.217-152.617z" fill="#8db9c4"/><path d="m143.55 368.449c0 .001.001.001.001.001 40.765 40.766 94.965 63.216 152.617 63.216 57.65 0 111.85-22.45 152.615-63.216s63.217-94.966 63.217-152.617-22.451-111.851-63.216-152.616z" fill="#678c97"/><path d="m296.168 64.267c83.574 0 151.566 67.992 151.566 151.566 0 61.029-36.262 113.743-88.367 137.745 0-8.284-6.717-15-15-15h-96.4c-8.284 0-15 6.716-15 15-52.105-24.003-88.367-76.716-88.367-137.745 0-83.574 67.993-151.566 151.568-151.566z" fill="#a8ebfa"/><path d="m403.291 108.709-214.238 214.238c12.638 12.637 27.486 23.063 43.914 30.631 0-8.284 6.716-15 15-15h96.4c8.283 0 15 6.716 15 15 52.105-24.002 88.367-76.716 88.367-137.745.001-41.787-16.998-79.679-44.443-107.124z" fill="#76e2f8"/><path d="m296.168 224.934c34.848 0 63.199 28.351 63.199 63.199v65.445c-19.248 8.867-40.655 13.822-63.199 13.822-22.546 0-43.953-4.956-63.201-13.822v-65.445c0-34.849 28.352-63.199 63.201-63.199z" fill="#3d5959"/><path d="m296.168 224.934c-.001 0-.001 0-.001 0v142.467h.001c22.544 0 43.951-4.955 63.199-13.822v-65.445c0-34.85-28.351-63.2-63.199-63.2z" fill="#293939"/><path d="m296.168 128.533c34.848 0 63.199 28.352 63.199 63.2s-28.352 63.2-63.199 63.2c-34.85 0-63.201-28.352-63.201-63.2s28.352-63.2 63.201-63.2z" fill="#a34f3e"/><path d="m296.168 128.533c-.001 0-.001 0-.001 0v126.4h.001c34.848 0 63.199-28.352 63.199-63.2s-28.351-63.2-63.199-63.2z" fill="#873f2e"/></svg>