<svg id="Capa_1" enable-background="new 0 0 512 512" height="512" viewBox="0 0 512 512" width="512" xmlns="http://www.w3.org/2000/svg"><path d="m456.833 63.199h-56.233v96.4 289.2c0 26.622 21.58 48.2 48.2 48.2s48.2-21.578 48.2-48.2v-345.432c0-22.092-18.075-40.168-40.167-40.168z" fill="#8db9c4"/><path d="m456.833 48.199h-41.689c-3.437-27.139-26.653-48.199-54.71-48.199h-305.267c-30.419 0-55.167 24.747-55.167 55.166v393.634c0 34.848 28.352 63.2 63.2 63.2h385.6c34.849 0 63.2-28.352 63.2-63.2v-345.433c0-30.42-24.748-55.168-55.167-55.168zm25.167 400.601c0 18.307-14.894 33.2-33.2 33.2s-33.2-14.894-33.2-33.2v-370.601h41.233c13.877 0 25.167 11.29 25.167 25.168z" fill="#e7f0ef"/><path d="m456.833 48.199h-41.689c-3.437-27.139-26.653-48.199-54.71-48.199h-152.64v512h241.006c34.849 0 63.2-28.352 63.2-63.2v-345.433c0-30.42-24.748-55.168-55.167-55.168zm25.167 400.601c0 18.307-14.894 33.2-33.2 33.2s-33.2-14.894-33.2-33.2v-370.601h41.233c13.877 0 25.167 11.29 25.167 25.168z" fill="#c5e1e6"/><g fill="#293939"><path d="m336.333 431.588h-96.399c-8.284 0-15-6.716-15-15s6.716-15 15-15h96.399c8.284 0 15 6.716 15 15s-6.716 15-15 15z"/><path d="m336.333 110.412h-96.399c-8.284 0-15-6.716-15-15s6.716-15 15-15h96.399c8.284 0 15 6.716 15 15s-6.716 15-15 15z"/><path d="m336.333 174.678h-96.399c-8.284 0-15-6.716-15-15s6.716-15 15-15h96.399c8.284 0 15 6.716 15 15s-6.716 15-15 15z"/><path d="m336.333 238.945h-96.399c-8.284 0-15-6.716-15-15s6.716-15 15-15h96.399c8.284 0 15 6.716 15 15 0 8.285-6.716 15-15 15z"/></g><path d="m288.134 367.321c-35.44 0-63.2-20.704-63.2-47.134s27.761-47.133 63.2-47.133 63.199 20.703 63.199 47.133-27.761 47.134-63.199 47.134zm0-64.266c-20.267 0-33.2 10.147-33.2 17.133s12.934 17.134 33.2 17.134 33.199-10.147 33.199-17.134c0-6.986-12.933-17.133-33.199-17.133z" fill="#ff0059"/><path d="m175.667 110.416h-96.4c-8.284 0-15-6.716-15-15s6.716-15 15-15h96.4c8.284 0 15 6.716 15 15s-6.716 15-15 15z" fill="#3d5959"/><path d="m175.667 431.594h-96.4c-8.284 0-15-6.716-15-15s6.716-15 15-15h96.4c8.284 0 15 6.716 15 15s-6.716 15-15 15z" fill="#3d5959"/><path d="m175.667 367.328h-96.4c-8.284 0-15-6.716-15-15s6.716-15 15-15h96.4c8.284 0 15 6.716 15 15s-6.716 15-15 15z" fill="#3d5959"/><path d="m175.667 303.06h-96.4c-8.284 0-15-6.716-15-15s6.716-15 15-15h96.4c8.284 0 15 6.716 15 15 0 8.285-6.716 15-15 15z" fill="#3d5959"/><path d="m127.467 238.949c-35.439 0-63.2-20.703-63.2-47.133s27.761-47.133 63.2-47.133 63.2 20.703 63.2 47.133-27.761 47.133-63.2 47.133zm0-64.265c-20.267 0-33.2 10.148-33.2 17.133s12.934 17.133 33.2 17.133 33.2-10.147 33.2-17.133-12.934-17.133-33.2-17.133z" fill="#ff5b5b"/></svg>