<svg id="Capa_1" enable-background="new 0 0 512 512" height="512" viewBox="0 0 512 512" width="512" xmlns="http://www.w3.org/2000/svg"><path d="m416.666 456.835c0 22.09-18.074 40.165-40.166 40.165h-241c-22.092 0-40.166-18.075-40.166-40.165v-401.669c0-22.092 18.074-40.166 40.166-40.166h241c22.092 0 40.166 18.074 40.166 40.166z" fill="#e7f0ef"/><path d="m376.5 15h-120.503v482h120.503c22.092 0 40.166-18.075 40.166-40.165v-401.669c0-22.092-18.074-40.166-40.166-40.166z" fill="#c5e1e6"/><path d="m376.5 0h-32.133-176.734-32.133c-30.418 0-55.166 24.747-55.166 55.166v401.669c0 30.418 24.748 55.165 55.166 55.165h241c30.418 0 55.166-24.747 55.166-55.165v-401.669c0-30.419-24.748-55.166-55.166-55.166zm25.166 456.835c0 13.876-11.289 25.165-25.166 25.165h-241c-13.877 0-25.166-11.289-25.166-25.165v-401.669c0-13.877 11.289-25.166 25.166-25.166h20.421l13.226 52.904c1.67 6.678 7.67 11.362 14.553 11.362h144.6c6.883 0 12.883-4.685 14.553-11.361l13.226-52.905h20.421c13.877 0 25.166 11.289 25.166 25.166z" fill="#3d5959"/><path d="m376.5 0h-32.133-88.37v94.267h72.302c6.883 0 12.883-4.685 14.553-11.361l13.227-52.906h20.421c13.877 0 25.166 11.289 25.166 25.166v401.669c0 13.876-11.289 25.165-25.166 25.165h-120.503v30h120.503c30.418 0 55.166-24.747 55.166-55.165v-401.669c0-30.419-24.748-55.166-55.166-55.166z" fill="#293939"/><path d="m148.993 373.927 55.662-55.662c5.857-5.857 15.355-5.857 21.213 0 5.858 5.858 5.858 15.355 0 21.213l-55.662 55.662c-2.929 2.929-6.768 4.394-10.607 4.394s-7.678-1.465-10.606-4.394c-5.858-5.858-5.858-15.356 0-21.213z" fill="#ff8a3c"/><path d="m148.993 395.14c2.929 2.929 6.768 4.394 10.606 4.394 3.839 0 7.678-1.465 10.607-4.394l55.662-55.662c5.858-5.857 5.858-15.355 0-21.213z" fill="#e56705"/><circle cx="272.067" cy="272.067" fill="#a8ebfa" r="80.333"/><path d="m215.263 328.87c14.537 14.538 34.621 23.53 56.804 23.53 44.365 0 80.334-35.969 80.334-80.334 0-22.184-8.992-42.267-23.53-56.805z" fill="#76e2f8"/><path d="m176.734 272.066c0-52.566 42.766-95.333 95.332-95.333 52.567 0 95.334 42.767 95.334 95.333 0 52.567-42.767 95.334-95.334 95.334-52.566 0-95.332-42.766-95.332-95.334zm30 0c0 36.025 29.308 65.334 65.332 65.334 36.025 0 65.334-29.309 65.334-65.334 0-36.024-29.309-65.333-65.334-65.333-36.024 0-65.332 29.309-65.332 65.333z" fill="#8db9c4"/><path d="m339.446 204.688-21.203 21.203c11.83 11.83 19.157 28.163 19.157 46.176 0 36.025-29.309 65.334-65.334 65.334-18.013 0-34.346-7.327-46.176-19.158l-21.203 21.203c17.263 17.264 41.095 27.955 67.379 27.955 52.567 0 95.334-42.767 95.334-95.334 0-26.284-10.692-50.118-27.954-67.379z" fill="#678c97"/></svg>