<svg id="Capa_1" enable-background="new 0 0 512 512" height="512" viewBox="0 0 512 512" width="512" xmlns="http://www.w3.org/2000/svg"><path d="m480.934 400.6v-313.3c0-22.092-18.074-40.167-40.166-40.167h-369.534c-22.092 0-40.168 18.075-40.168 40.167v313.3" fill="#e7f0ef"/><path d="m480.934 87.3c0-22.092-18.074-40.167-40.166-40.167h-184.768v353.467h224.934z" fill="#c5e1e6"/><path d="m480.934 415.6c-8.285 0-15-6.716-15-15v-313.3c0-13.877-11.291-25.167-25.166-25.167h-369.534c-13.877 0-25.168 11.29-25.168 25.167v313.3c0 8.284-6.715 15-15 15-8.283 0-15-6.716-15-15v-313.3c0-30.419 24.748-55.167 55.168-55.167h369.533c30.418 0 55.166 24.748 55.166 55.167v313.3c.001 8.284-6.716 15-14.999 15z" fill="#3d5959"/><path d="m440.768 32.133h-184.768v30h184.768c13.875 0 25.166 11.29 25.166 25.167v313.3c0 8.284 6.715 15 15 15 8.283 0 15-6.716 15-15v-313.3c0-30.419-24.749-55.167-55.166-55.167z" fill="#293939"/><path d="m497 385.6h-482c-8.283 0-15 6.716-15 15 0 43.708 35.559 79.268 79.268 79.268h353.467c43.707 0 79.266-35.56 79.266-79.268-.001-8.285-6.716-15-15.001-15z" fill="#c5e1e6"/><path d="m497 385.6h-241v94.268h176.734c43.707 0 79.266-35.56 79.266-79.268 0-8.285-6.715-15-15-15z" fill="#8db9c4"/><path d="m148.992 309.66 55.662-55.662c5.857-5.857 15.355-5.857 21.213 0 5.859 5.857 5.859 15.355 0 21.213l-55.662 55.662c-2.928 2.929-6.768 4.394-10.605 4.394-3.84 0-7.678-1.465-10.607-4.394-5.858-5.857-5.858-15.355-.001-21.213z" fill="#ff8a3c"/><path d="m148.992 330.873c2.93 2.929 6.768 4.394 10.607 4.394 3.838 0 7.678-1.465 10.605-4.394l55.662-55.662c5.859-5.857 5.859-15.355 0-21.213z" fill="#e56705"/><circle cx="272.067" cy="207.8" fill="#a8ebfa" r="80.333"/><path d="m215.262 264.603c14.537 14.538 34.621 23.53 56.805 23.53 44.365 0 80.334-35.969 80.334-80.334 0-22.184-8.992-42.267-23.531-56.805z" fill="#76e2f8"/><path d="m176.734 207.8c0-52.566 42.766-95.333 95.332-95.333s95.334 42.766 95.334 95.333-42.768 95.334-95.334 95.334-95.332-42.767-95.332-95.334zm30 0c0 36.025 29.307 65.334 65.332 65.334s65.334-29.309 65.334-65.334c0-36.024-29.309-65.333-65.334-65.333s-65.332 29.308-65.332 65.333z" fill="#8db9c4"/><path d="m339.445 140.421-21.203 21.203c11.83 11.83 19.158 28.163 19.158 46.176 0 36.025-29.309 65.334-65.334 65.334-18.014 0-34.346-7.327-46.176-19.158l-21.203 21.203c17.262 17.264 41.094 27.955 67.379 27.955 52.566 0 95.334-42.767 95.334-95.334 0-26.283-10.693-50.117-27.955-67.379z" fill="#678c97"/></svg>