<svg id="Capa_1" enable-background="new 0 0 512 512" height="512" viewBox="0 0 512 512" width="512" xmlns="http://www.w3.org/2000/svg"><path d="m497 128.533h-482c-8.283 0-15 6.716-15 15v313.301c0 30.419 24.749 55.166 55.168 55.166h401.664c30.42 0 55.168-24.747 55.168-55.166v-313.301c0-8.284-6.717-15-15-15z" fill="#e7f0ef"/><path d="m497 128.533h-241v383.467h200.832c30.42 0 55.168-24.747 55.168-55.166v-313.301c0-8.284-6.717-15-15-15z" fill="#c5e1e6"/><path d="m456.832 0h-401.664c-30.419 0-55.168 24.748-55.168 55.168v88.365h512v-88.365c0-30.42-24.748-55.168-55.168-55.168z" fill="#0065a3"/><path d="m512 55.168c0-30.42-24.748-55.168-55.168-55.168h-200.832v143.533h256z" fill="#005183"/><path d="m79.268 94.266c-3.95 0-7.82-1.6-10.61-4.39s-4.39-6.66-4.39-10.61c0-3.949 1.6-7.81 4.39-10.609 2.79-2.79 6.66-4.391 10.61-4.391 3.949 0 7.81 1.601 10.6 4.391 2.8 2.79 4.4 6.66 4.4 10.609 0 3.95-1.601 7.82-4.4 10.61-2.791 2.79-6.661 4.39-10.6 4.39z" fill="#ff5b5b"/><path d="m207.797 94.266c-3.939 0-7.81-1.6-10.6-4.39-2.8-2.79-4.4-6.66-4.4-10.61 0-3.949 1.601-7.81 4.4-10.609 2.79-2.79 6.66-4.391 10.6-4.391 3.95 0 7.82 1.601 10.61 4.391 2.79 2.8 4.39 6.66 4.39 10.609 0 3.95-1.6 7.82-4.39 10.61-2.8 2.79-6.66 4.39-10.61 4.39z" fill="#54e360"/><path d="m143.537 94.266c-3.95 0-7.82-1.6-10.61-4.39s-4.39-6.66-4.39-10.61c0-3.949 1.6-7.819 4.39-10.609s6.66-4.391 10.61-4.391 7.811 1.601 10.6 4.391c2.801 2.8 4.4 6.66 4.4 10.609 0 3.95-1.6 7.82-4.4 10.61-2.789 2.79-6.66 4.39-10.6 4.39z" fill="#ffd400"/><path d="m432.734 94.268h-160.668c-8.283 0-15-6.716-15-15s6.717-15 15-15h160.668c8.285 0 15 6.716 15 15s-6.714 15-15 15z" fill="#c5e1e6"/><path d="m148.993 406.06 55.662-55.662c5.857-5.858 15.355-5.858 21.213 0 5.858 5.857 5.858 15.355 0 21.213l-55.662 55.662c-2.929 2.929-6.768 4.393-10.607 4.393s-7.678-1.465-10.606-4.393c-5.858-5.858-5.858-15.356 0-21.213z" fill="#ff8a3c"/><path d="m148.993 427.273c2.929 2.929 6.768 4.393 10.606 4.393 3.839 0 7.678-1.465 10.607-4.393l55.662-55.662c5.858-5.857 5.858-15.355 0-21.213z" fill="#e56705"/><circle cx="272.067" cy="304.199" fill="#a8ebfa" r="80.333"/><path d="m215.263 361.003c14.537 14.538 34.621 23.53 56.804 23.53 44.365 0 80.334-35.969 80.334-80.334 0-22.184-8.992-42.267-23.53-56.805z" fill="#76e2f8"/><path d="m176.734 304.199c0-52.566 42.766-95.333 95.332-95.333 52.567 0 95.334 42.767 95.334 95.333 0 52.567-42.767 95.334-95.334 95.334-52.566 0-95.332-42.766-95.332-95.334zm30 0c0 36.025 29.308 65.334 65.332 65.334 36.025 0 65.334-29.309 65.334-65.334 0-36.024-29.309-65.333-65.334-65.333-36.024 0-65.332 29.309-65.332 65.333z" fill="#8db9c4"/><path d="m339.446 236.82-21.203 21.203c11.83 11.83 19.157 28.163 19.157 46.176 0 36.025-29.309 65.334-65.334 65.334-18.013 0-34.346-7.327-46.176-19.158l-21.203 21.203c17.263 17.264 41.095 27.955 67.379 27.955 52.567 0 95.334-42.767 95.334-95.334 0-26.283-10.692-50.117-27.954-67.379z" fill="#678c97"/></svg>