<svg id="Capa_1" enable-background="new 0 0 512 512" height="512" viewBox="0 0 512 512" width="512" xmlns="http://www.w3.org/2000/svg"><path d="m440.768 32.135h-369.534c-30.42 0-55.168 24.747-55.168 55.166v369.533c0 30.419 24.748 55.166 55.168 55.166h369.531c30.418 0 55.166-24.747 55.166-55.166l.002-369.533c.001-30.419-24.748-55.166-55.165-55.166z" fill="#ffd400"/><path d="m440.768 32.135h-184.768v479.865h184.766c30.418 0 55.166-24.747 55.166-55.166l.002-369.533c0-30.419-24.749-55.166-55.166-55.166z" fill="#ff9f04"/><path d="m304.201 254.934c-8.284 0-15-6.716-15-15v-49.266h-66.4v49.266c0 8.284-6.717 15-15 15-8.285 0-15-6.716-15-15v-64.266c0-8.284 6.715-15 15-15h96.4c8.284 0 15 6.716 15 15v64.266c0 8.284-6.716 15-15 15z" fill="#ca6d36"/><path d="m289.201 239.934c0 8.284 6.716 15 15 15s15-6.716 15-15v-64.266c0-8.284-6.716-15-15-15h-48.201v30h33.201z" fill="#b24d00"/><path d="m256 0c-25.989 0-47.133 21.145-47.133 47.135 0 25.989 21.143 47.133 47.133 47.133s47.133-21.144 47.133-47.133c0-25.99-21.144-47.135-47.133-47.135z" fill="#ff5b5b"/><path d="m303.133 47.135c0-25.99-21.144-47.135-47.133-47.135v94.268c25.989 0 47.133-21.144 47.133-47.133z" fill="#ff0059"/><path d="m328.301 224.934h-144.6c-30.42 0-55.168 24.747-55.168 55.166v80.334c0 30.419 24.748 55.166 55.168 55.166h144.6c30.418 0 55.166-24.747 55.166-55.166v-80.334c0-30.419-24.748-55.166-55.166-55.166z" fill="#ff8a3c"/><path d="m328.301 224.934h-72.301v190.666h72.301c30.418 0 55.166-24.747 55.166-55.166v-80.334c0-30.419-24.748-55.166-55.166-55.166z" fill="#e56705"/><path d="m128.533 289.201h254.934v30h-254.934z" fill="#ca6d36"/><path d="m256 289.201h127.467v30h-127.467z" fill="#b24d00"/></svg>