<svg id="Capa_1" enable-background="new 0 0 512 512" height="512" viewBox="0 0 512 512" width="512" xmlns="http://www.w3.org/2000/svg"><path d="m497 392.566c0 22.092-18.072 40.168-40.164 40.168h-401.668c-22.09 0-40.168-18.076-40.168-40.168v-337.398c0-22.092 18.078-40.168 40.168-40.168h401.668c22.092 0 40.164 18.076 40.164 40.168z" fill="#e7f0ef"/><path d="m456.836 15h-200.835v417.734h200.835c22.092 0 40.164-18.076 40.164-40.168v-337.398c0-22.092-18.072-40.168-40.164-40.168z" fill="#c5e1e6"/><path d="m456.836 0h-401.668c-30.42 0-55.168 24.748-55.168 55.168v337.398c0 30.42 24.748 55.168 55.168 55.168h153.699v34.266h-81.4c-8.284 0-15 6.716-15 15s6.716 15 15 15h96.4 64.268 96.4c8.284 0 15-6.716 15-15s-6.716-15-15-15h-81.4v-34.266h153.701c30.418 0 55.164-24.748 55.164-55.168v-337.398c0-30.42-24.746-55.168-55.164-55.168zm25.164 392.566c0 13.878-11.289 25.168-25.164 25.168h-168.701-64.268-168.699c-13.877 0-25.168-11.29-25.168-25.168v-337.398c0-13.878 11.291-25.168 25.168-25.168h401.668c13.875 0 25.164 11.29 25.164 25.168z" fill="#c5e1e6"/><path d="m456.836 0h-200.835v30h200.835c13.875 0 25.164 11.29 25.164 25.168v337.398c0 13.878-11.289 25.168-25.164 25.168h-168.701-32.134v94.266h32.134 96.4c8.284 0 15-6.716 15-15s-6.716-15-15-15h-81.4v-34.266h153.701c30.418 0 55.164-24.748 55.164-55.168v-337.398c0-30.42-24.746-55.168-55.164-55.168z" fill="#8db9c4"/><path d="m111.4 128.533c-25.989 0-47.133 21.145-47.133 47.135v32.133c0 8.284 6.716 15 15 15h64.266c8.284 0 15-6.716 15-15v-32.133c0-25.99-21.143-47.135-47.133-47.135z" fill="#3d5959"/><path d="m304.199 126.4h-96.398c-8.284 0-15-6.716-15-15s6.716-15 15-15h96.398c8.284 0 15 6.716 15 15s-6.716 15-15 15z" fill="#3d5959"/><path d="m336.334 190.668h-128.533c-8.284 0-15-6.716-15-15s6.716-15 15-15h128.533c8.284 0 15 6.716 15 15s-6.716 15-15 15z" fill="#3d5959"/><path d="m400.6 289.201c-25.989 0-47.133 21.145-47.133 47.135v32.133c0 8.284 6.716 15 15 15h64.266c8.284 0 15-6.716 15-15v-32.133c-.001-25.99-21.144-47.135-47.133-47.135z" fill="#b24d00"/><path d="m304.199 287.068h-96.398c-8.284 0-15-6.716-15-15s6.716-15 15-15h96.398c8.284 0 15 6.716 15 15 0 8.285-6.716 15-15 15z" fill="#3d5959"/><path d="m304.199 351.336h-128.531c-8.284 0-15-6.716-15-15s6.716-15 15-15h128.531c8.284 0 15 6.716 15 15s-6.716 15-15 15z" fill="#3d5959"/><path d="m111.4 64.268c-25.989 0-47.133 21.144-47.133 47.133s21.144 47.133 47.133 47.133 47.133-21.144 47.133-47.133c0-25.99-21.143-47.133-47.133-47.133z" fill="#a34f3e"/><path d="m400.6 224.936c-25.989 0-47.133 21.144-47.133 47.133s21.144 47.133 47.133 47.133 47.133-21.144 47.133-47.133c-.001-25.99-21.144-47.133-47.133-47.133z" fill="#ffbb85"/><g fill="#293939"><path d="m319.199 111.4c0-8.284-6.716-15-15-15h-48.198v30h48.198c8.284 0 15-6.715 15-15z"/><path d="m336.334 160.668h-80.333v30h80.333c8.284 0 15-6.716 15-15s-6.716-15-15-15z"/><path d="m304.199 287.068c8.284 0 15-6.716 15-15s-6.716-15-15-15h-48.198v30z"/><path d="m304.199 351.336c8.284 0 15-6.716 15-15s-6.716-15-15-15h-48.198v30z"/></g></svg>