<svg id="Capa_1" enable-background="new 0 0 512 512" height="512" viewBox="0 0 512 512" width="512" xmlns="http://www.w3.org/2000/svg"><path d="m304.199 192.801h-96.4c-8.284 0-15 6.716-15 15v96.4c0 8.284 6.716 15 15 15h96.4c8.284 0 15-6.716 15-15v-96.4c0-8.284-6.716-15-15-15z" fill="#c5e1e6"/><path d="m304.199 192.801h-48.199v126.4h48.199c8.284 0 15-6.716 15-15v-96.4c0-8.284-6.716-15-15-15z" fill="#8db9c4"/><path d="m175.666 384.791c-8.284 0-15 6.716-15 15h-82.467c0-8.284-6.716-15-15-15s-15 6.716-15 15v57.043c0 30.419 24.748 55.166 55.168 55.166h32.133c30.418 0 55.166-24.747 55.166-55.166v-57.043c0-8.284-6.716-15-15-15z" fill="#c5e1e6"/><path d="m448.799 384.791c-8.284 0-15 6.716-15 15h-82.467c0-8.284-6.716-15-15-15s-15 6.716-15 15v57.043c0 30.419 24.748 55.166 55.168 55.166h32.133c30.418 0 55.166-24.747 55.166-55.166v-57.043c0-8.284-6.716-15-15-15z" fill="#8db9c4"/><path d="m207.799 96.4h-176.733c-8.284 0-15 6.716-15 15v249.033c0 30.419 24.748 55.166 55.166 55.166h96.4c30.418 0 55.166-24.747 55.166-55.166v-249.033c.001-8.284-6.715-15-14.999-15z" fill="#3d5959"/><path d="m480.932 96.4h-176.733c-8.284 0-15 6.716-15 15v249.033c0 30.419 24.748 55.166 55.166 55.166h96.4c30.418 0 55.166-24.747 55.166-55.166v-249.033c.001-8.284-6.715-15-14.999-15z" fill="#293939"/><path d="m183.699 0h-128.533c-30.418 0-55.166 24.748-55.166 55.168v56.232c0 8.284 6.716 15 15 15h208.867c8.284 0 15-6.716 15-15v-56.232c0-30.42-24.748-55.168-55.168-55.168z" fill="#c5e1e6"/><path d="m456.832 0h-128.533c-30.418 0-55.166 24.748-55.166 55.168v56.232c0 8.284 6.716 15 15 15h208.867c8.284 0 15-6.716 15-15v-56.232c0-30.42-24.748-55.168-55.168-55.168z" fill="#8db9c4"/></svg>