<svg id="Capa_1" enable-background="new 0 0 512.001 512.001" height="512" viewBox="0 0 512.001 512.001" width="512" xmlns="http://www.w3.org/2000/svg"><path d="m459.407 132.928-128.534-128.533c-2.813-2.813-6.629-4.393-10.606-4.393h-216.899c-30.419 0-55.167 24.748-55.167 55.168v401.666c0 30.419 24.748 55.166 55.167 55.166h305.267c30.419 0 55.166-24.747 55.166-55.166v-313.302c-.001-3.978-1.582-7.794-4.394-10.606z" fill="#e7f0ef"/><path d="m459.407 132.928-128.534-128.533c-2.813-2.813-6.629-4.393-10.606-4.393h-64.265v512h152.632c30.419 0 55.166-24.747 55.166-55.166v-313.302c0-3.978-1.581-7.794-4.393-10.606z" fill="#c5e1e6"/><path d="m459.407 132.928-128.534-128.533c-4.289-4.291-10.742-5.574-16.347-3.252s-9.26 7.791-9.26 13.858v88.367c0 30.419 24.748 55.166 55.167 55.166h88.367c6.067 0 11.536-3.654 13.858-9.26 2.322-5.605 1.039-12.056-3.251-16.346z" fill="#8db9c4"/><g fill="#3d5959"><path d="m384.534 417.733h-186.587l-17.133-17.133 21.526-21.526c5.857-5.857 5.857-15.355 0-21.213-5.858-5.858-15.355-5.858-21.213 0l-21.527 21.527-21.526-21.526c-5.857-5.857-15.355-5.857-21.213 0-5.858 5.858-5.858 15.355 0 21.213l21.526 21.526-21.526 21.526c-5.858 5.857-5.858 15.355-.001 21.213 2.93 2.93 6.768 4.393 10.607 4.393 3.838 0 7.678-1.465 10.606-4.393l21.526-21.526 21.527 21.526c2.813 2.813 6.629 4.393 10.606 4.393h192.8c8.284 0 15-6.716 15-15 .002-8.284-6.714-15-14.998-15z"/><path d="m384.534 319.202h-257.067c-8.284 0-15-6.716-15-15s6.716-15 15-15h257.066c8.284 0 15 6.716 15 15 .001 8.284-6.715 15-14.999 15z"/><path d="m384.534 254.935h-257.067c-8.284 0-15-6.716-15-15s6.716-15 15-15h257.066c8.284 0 15 6.716 15 15 .001 8.284-6.715 15-14.999 15z"/><path d="m241 190.669h-113.533c-8.284 0-15-6.716-15-15s6.716-15 15-15h113.533c8.284 0 15 6.716 15 15s-6.715 15-15 15z"/><path d="m241 126.401h-113.533c-8.284 0-15-6.716-15-15s6.716-15 15-15h113.533c8.284 0 15 6.716 15 15s-6.715 15-15 15z"/></g><path d="m384.534 447.733c8.284 0 15-6.716 15-15s-6.716-15-15-15h-128.532v30z" fill="#293939"/><path d="m399.534 304.202c0-8.284-6.716-15-15-15h-128.532v30h128.531c8.285 0 15.001-6.716 15.001-15z" fill="#293939"/><path d="m399.534 239.935c0-8.284-6.716-15-15-15h-128.532v30h128.531c8.285 0 15.001-6.716 15.001-15z" fill="#293939"/></svg>