<svg id="Capa_1" enable-background="new 0 0 512 512" height="512" viewBox="0 0 512 512" width="512" xmlns="http://www.w3.org/2000/svg"><path d="m384.534 126.399c-8.284 0-15-6.716-15-15v-56.233c0-13.877-11.29-25.166-25.167-25.166h-176.733c-13.877 0-25.167 11.289-25.167 25.166v56.233c0 8.284-6.716 15-15 15s-15-6.716-15-15v-56.233c0-30.419 24.748-55.166 55.167-55.166h176.733c30.419 0 55.167 24.747 55.167 55.166v56.233c0 8.285-6.716 15-15 15z" fill="#ff8a3c"/><path d="m344.367 0h-88.375v30h88.375c13.877 0 25.167 11.289 25.167 25.166v56.233c0 8.284 6.716 15 15 15s15-6.716 15-15v-56.233c0-30.419-24.748-55.166-55.167-55.166z" fill="#e56705"/><path d="m480.934 273.133c-8.284 0-15 6.716-15 15h-419.867c0-8.284-6.716-15-15-15s-15 6.716-15 15v168.7c0 30.419 24.747 55.167 55.166 55.167h369.533c30.419 0 55.167-24.748 55.167-55.167v-168.7c.001-8.284-6.715-15-14.999-15z" fill="#ff8a3c"/><path d="m480.934 273.133c-8.284 0-15 6.716-15 15h-209.942v223.867h184.774c30.419 0 55.167-24.748 55.167-55.167v-168.7c.001-8.284-6.715-15-14.999-15z" fill="#e56705"/><path d="m456.834 96.399h-401.667c-30.419 0-55.167 24.749-55.167 55.167v136.566c0 8.284 6.716 15 15 15h208.872c8.284 0 15-6.716 15-15h34.272c0 8.284 6.716 15 15 15h208.856c8.284 0 15-6.716 15-15v-136.566c0-30.418-24.748-55.167-55.166-55.167z" fill="#ca6d36"/><path d="m456.834 96.399h-200.842v191.733h17.152c0 8.284 6.716 15 15 15h208.856c8.284 0 15-6.716 15-15v-136.566c0-30.418-24.748-55.167-55.166-55.167z" fill="#b24d00"/><path d="m288.134 224.933h-64.267c-8.284 0-15 6.716-15 15v96.4c0 8.284 6.716 15 15 15h64.267c8.284 0 15-6.716 15-15v-96.4c0-8.285-6.716-15-15-15z" fill="#ffd400"/><path d="m288.134 351.333c8.284 0 15-6.716 15-15v-96.4c0-8.284-6.716-15-15-15h-32.142v126.4z" fill="#ff9f04"/></svg>