<svg id="Capa_1" enable-background="new 0 0 512 512" height="512" viewBox="0 0 512 512" width="512" xmlns="http://www.w3.org/2000/svg"><path d="m456.833 112.467h-401.666c-30.419 0-55.167 24.747-55.167 55.166v273.135c0 30.419 24.748 55.166 55.167 55.166h401.666c30.419 0 55.167-24.747 55.167-55.166v-273.135c0-30.419-24.748-55.166-55.167-55.166z" fill="#e7f0ef"/><path d="m456.833 112.467h-200.833v383.467h200.833c30.419 0 55.167-24.747 55.167-55.166v-273.135c0-30.419-24.748-55.166-55.167-55.166z" fill="#c5e1e6"/><path d="m111.4 289.201c-25.99 0-47.134 21.143-47.134 47.133v32.133c0 8.284 6.716 15 15 15h64.267c8.284 0 15-6.716 15-15v-32.133c0-25.989-21.143-47.133-47.133-47.133z" fill="#8db9c4"/><g fill="#3d5959"><path d="m432.733 319.201h-224.933c-8.284 0-15-6.716-15-15s6.716-15 15-15h224.934c8.284 0 15 6.716 15 15s-6.716 15-15.001 15z"/><path d="m400.6 254.934h-160.666c-8.284 0-15-6.716-15-15s6.716-15 15-15h160.666c8.284 0 15 6.716 15 15s-6.716 15-15 15z"/><path d="m368.467 383.467h-160.667c-8.284 0-15-6.716-15-15s6.716-15 15-15h160.667c8.284 0 15 6.716 15 15s-6.716 15-15 15z"/></g><path d="m256 16.066c-25.99 0-47.134 21.145-47.134 47.135v80.332c0 25.989 21.144 47.133 47.134 47.133s47.134-21.143 47.134-47.133v-80.332c0-25.99-21.144-47.135-47.134-47.135z" fill="#c5e1e6"/><path d="m111.4 224.934c-25.99 0-47.134 21.144-47.134 47.133 0 25.99 21.144 47.135 47.134 47.135 25.989 0 47.133-21.145 47.133-47.135s-21.143-47.133-47.133-47.133z" fill="#ffcdbe"/><path d="m432.733 289.201h-176.733v30h176.733c8.284 0 15-6.716 15-15s-6.715-15-15-15z" fill="#293939"/><path d="m415.6 239.934c0-8.284-6.716-15-15-15h-144.6v30h144.6c8.284 0 15-6.716 15-15z" fill="#293939"/><path d="m368.467 383.467c8.284 0 15-6.716 15-15s-6.716-15-15-15h-112.467v30z" fill="#293939"/><path d="m303.134 143.533v-80.332c0-25.99-21.144-47.135-47.134-47.135v174.6c25.99 0 47.134-21.143 47.134-47.133z" fill="#8db9c4"/></svg>