<svg id="Capa_1" enable-background="new 0 0 512 512" height="512" viewBox="0 0 512 512" width="512" xmlns="http://www.w3.org/2000/svg"><path d="m408.916 330.159c-14.422-25.436-35.164-47.074-59.984-62.576-27.844-17.391-59.979-26.583-92.932-26.583s-65.088 9.192-92.932 26.583c-24.82 15.502-45.563 37.141-59.984 62.576-14.883 26.251-22.75 56.165-22.75 86.507v40.167c0 30.419 24.748 55.167 55.166 55.167h241c30.418 0 55.166-24.748 55.166-55.167v-40.167c0-30.342-7.867-60.256-22.75-86.507z" fill="#3d5959"/><path d="m408.916 330.159c-14.422-25.436-35.164-47.074-59.984-62.576-27.844-17.391-59.979-26.583-92.932-26.583v271h120.5c30.418 0 55.166-24.748 55.166-55.167v-40.167c0-30.342-7.867-60.256-22.75-86.507z" fill="#293939"/><path d="m348.932 267.583c-27.844-17.391-59.979-26.583-92.932-26.583s-65.088 9.192-92.932 26.583c-.535.334-1.059.688-1.59 1.027l79.522 97.527h30l79.522-97.526c-.532-.34-1.055-.694-1.59-1.028z" fill="#e7f0ef"/><path d="m350.522 268.61c-.531-.34-1.055-.693-1.59-1.027-27.844-17.391-59.979-26.583-92.932-26.583v125.137h15z" fill="#c5e1e6"/><path d="m271 366.137v-110.137c0-8.284-6.716-15-15-15s-15 6.716-15 15v110.137l15 18.396z" fill="#ff5b5b"/><path d="m256 241v143.533l15-18.396v-110.137c0-8.284-6.716-15-15-15z" fill="#ff0059"/><path d="m256 0c-74.715 0-135.5 60.785-135.5 135.5s60.785 135.5 135.5 135.5 135.5-60.785 135.5-135.5-60.785-135.5-135.5-135.5z" fill="#fdd1a3"/><path d="m256 0v271c74.715 0 135.5-60.785 135.5-135.5s-60.785-135.5-135.5-135.5z" fill="#ffbb85"/></svg>