<svg id="Capa_1" enable-background="new 0 0 512 512" height="512" viewBox="0 0 512 512" width="512" xmlns="http://www.w3.org/2000/svg"><path d="m400.6 160.016c-8.283 0-15 6.716-15 15h-259.2c0-8.284-6.715-15-15-15-8.283 0-15 6.716-15 15v84.847c0 14.039 9.127 33.818 52.609 48.313 28.799 9.601 66.797 14.888 106.99 14.888s78.19-5.287 106.99-14.888c43.482-14.494 52.609-34.273 52.609-48.313v-84.847c.002-8.285-6.713-15-14.998-15z" fill="#537982"/><path d="m400.6 160.016c-8.283 0-15 6.716-15 15h-129.6v148.047c40.193 0 78.19-5.287 106.99-14.888 43.482-14.494 52.609-34.273 52.609-48.313v-84.847c.001-8.284-6.714-14.999-14.999-14.999z" fill="#3d5959"/><path d="m464.867 331.402c-8.283 0-15-6.716-15-15v-159.666c0-8.284 6.717-15 15-15 8.285 0 15 6.716 15 15v159.666c0 8.284-6.715 15-15 15z" fill="#ff641a"/><path d="m485.553 113.537-187.041-56.113c-11.521-3.456-26.619-5.359-42.512-5.359-15.891 0-30.988 1.902-42.512 5.359l-187.039 56.113c-21.861 6.557-26.449 17.663-26.449 25.825-.002 8.161 4.588 19.268 26.447 25.827l187.043 56.113c11.521 3.457 26.619 5.359 42.51 5.359 15.893 0 30.99-1.903 42.512-5.359l187.043-56.113c21.857-6.559 26.445-17.666 26.445-25.827 0-8.162-4.59-19.268-26.447-25.825z" fill="#3d5959"/><path d="m485.553 113.537-187.041-56.113c-11.521-3.456-26.619-5.359-42.512-5.359v174.598c15.893 0 30.99-1.903 42.512-5.359l187.043-56.113c21.857-6.561 26.445-17.668 26.445-25.829 0-8.162-4.59-19.268-26.447-25.825z" fill="#293939"/><path d="m464.867 301.402c-25.988 0-47.133 21.145-47.133 47.135v64.266c0 25.989 21.145 47.133 47.133 47.133 25.99 0 47.133-21.143 47.133-47.133v-64.266c0-25.99-21.143-47.135-47.133-47.135z" fill="#ff9f04"/></svg>