<svg id="Capa_1" enable-background="new 0 0 512 512" height="512" viewBox="0 0 512 512" width="512" xmlns="http://www.w3.org/2000/svg"><path d="m480.934 400.6v-313.3c0-22.091-18.074-40.166-40.167-40.166h-369.534c-22.092 0-40.166 18.075-40.166 40.166v313.3" fill="#e7f0ef"/><path d="m480.934 87.3c0-22.091-18.074-40.166-40.167-40.166h-184.768v353.466h224.935z" fill="#c5e1e6"/><path d="m480.934 415.6c-8.284 0-15-6.716-15-15v-313.3c0-13.877-11.29-25.166-25.167-25.166h-369.534c-13.876 0-25.166 11.289-25.166 25.166v313.3c0 8.284-6.716 15-15 15s-15-6.716-15-15v-313.3c0-30.419 24.747-55.166 55.166-55.166h369.533c30.419 0 55.167 24.747 55.167 55.166v313.3c.001 8.284-6.715 15-14.999 15z" fill="#3d5959"/><path d="m440.767 32.134h-184.768v30h184.768c13.877 0 25.167 11.289 25.167 25.166v313.3c0 8.284 6.716 15 15 15s15-6.716 15-15v-313.3c0-30.419-24.749-55.166-55.167-55.166z" fill="#293939"/><path d="m256.002 254.145c-66.26 0-120.165 53.905-120.165 120.164v26.29c0 8.284 6.716 15 15 15h210.326c8.284 0 15-6.716 15-15v-26.29c0-66.258-53.904-120.164-120.161-120.164z" fill="#8db9c4"/><path d="m256.002 254.145c-.001 0-.002 0-.003 0v161.455h105.164c8.284 0 15-6.716 15-15v-26.29c0-66.259-53.904-120.165-120.161-120.165z" fill="#678c97"/><path d="m497 385.6h-482c-8.284 0-15 6.716-15 15 0 43.708 35.559 79.267 79.267 79.267h353.468c43.707 0 79.266-35.559 79.266-79.267-.001-8.285-6.717-15-15.001-15z" fill="#c5e1e6"/><path d="m256.002 96.4c-51.762 0-93.874 42.11-93.874 93.871 0 51.763 42.112 93.874 93.874 93.874 51.761 0 93.871-42.111 93.871-93.874 0-51.76-42.11-93.871-93.871-93.871z" fill="#a34f3e"/><path d="m497 385.6h-241.001v94.267h176.735c43.707 0 79.266-35.559 79.266-79.267 0-8.285-6.716-15-15-15z" fill="#8db9c4"/><path d="m349.873 190.271c0-51.761-42.11-93.871-93.871-93.871-.001 0-.002 0-.003 0v187.745h.003c51.761.001 93.871-42.111 93.871-93.874z" fill="#873f2e"/></svg>