<svg id="Capa_1" enable-background="new 0 0 512 512" height="512" viewBox="0 0 512 512" width="512" xmlns="http://www.w3.org/2000/svg"><path d="m464.865 353.467h-417.732c-8.283 0-15 6.716-15 15v128.533c0 8.284 6.717 15 15 15h417.732c8.284 0 15-6.716 15-15v-128.533c0-8.284-6.716-15-15-15z" fill="#ca6d36"/><path d="m464.865 353.467h-208.867v158.533h208.867c8.284 0 15-6.716 15-15v-128.533c0-8.284-6.716-15-15-15z" fill="#b24d00"/><path d="m376.5 72.3h-241c-30.42 0-55.168 24.748-55.168 55.167v176.733c0 8.284 6.717 15 15 15h321.334c8.284 0 15-6.716 15-15v-176.733c0-30.419-24.748-55.167-55.166-55.167z" fill="#ca6d36"/><path d="m431.666 304.2v-176.733c0-30.419-24.748-55.167-55.166-55.167h-120.502v246.9h160.668c8.284 0 15-6.716 15-15z" fill="#b24d00"/><path d="m324.949 168.5c-19.818-15.636-43.66-23.9-68.949-23.9s-49.131 8.264-68.948 23.898c-.002.001-.004.003-.006.005-26.976 21.283-42.446 53.175-42.446 87.497v48.2c0 8.284 6.717 15 15 15h192.799c8.284 0 15-6.716 15-15v-48.2c-.001-34.324-15.472-66.216-42.45-87.5z" fill="#3d5959"/><path d="m324.949 168.5c-19.818-15.636-43.66-23.9-68.949-23.9-.001 0-.001 0-.002 0v174.6h96.4c8.284 0 15-6.716 15-15v-48.2c0-34.324-15.471-66.216-42.449-87.5z" fill="#293939"/><path d="m326.321 169.614c-.456-.372-.908-.748-1.372-1.114-19.818-15.636-43.66-23.9-68.949-23.9s-49.131 8.264-68.948 23.898c-.002.001-.004.003-.006.005-.462.363-.911.738-1.365 1.109l70.319 70.322z" fill="#e7f0ef"/><path d="m326.321 169.614c-.456-.372-.908-.748-1.372-1.114-19.818-15.636-43.66-23.9-68.949-23.9-.001 0-.001 0-.002 0v95.332l.002.002z" fill="#c5e1e6"/><path d="m464.865 289.2h-417.732c-25.989 0-47.133 21.144-47.133 47.133s21.144 47.134 47.133 47.134h417.732c25.99 0 47.135-21.145 47.135-47.134s-21.145-47.133-47.135-47.133z" fill="#ff8a3c"/><path d="m256 0c-48.138 0-87.301 39.162-87.301 87.3s39.163 87.3 87.301 87.3c48.137 0 87.299-39.162 87.299-87.3s-39.162-87.3-87.299-87.3z" fill="#ffcdbe"/><path d="m464.865 289.2h-208.867v94.267h208.867c25.99 0 47.135-21.145 47.135-47.134s-21.145-47.133-47.135-47.133z" fill="#e56705"/><path d="m343.299 87.3c0-48.138-39.162-87.3-87.299-87.3-.001 0-.001 0-.002 0v174.6h.002c48.137 0 87.299-39.162 87.299-87.3z" fill="#ffbeaa"/></svg>