<svg id="Capa_1" enable-background="new 0 0 512 512" height="512" viewBox="0 0 512 512" width="512" xmlns="http://www.w3.org/2000/svg"><path d="m15 55.167c0-22.092 18.074-40.167 40.166-40.167h160.668c22.092 0 40.166 18.075 40.166 40.167v96.399c0 22.092-18.074 40.167-40.166 40.167h-160.668c-22.092 0-40.166-18.075-40.166-40.167z" fill="#e7f0ef"/><path d="m215.834 15h-80.336v176.733h80.336c22.092 0 40.166-18.075 40.166-40.167v-96.399c0-22.092-18.074-40.167-40.166-40.167z" fill="#c5e1e6"/><path d="m215.834 0h-160.668c-30.418 0-55.166 24.748-55.166 55.167v96.399c0 30.419 24.748 55.167 55.166 55.167h33.201v49.267c0 8.284 6.716 15 15 15h64.266c8.284 0 15-6.716 15-15v-49.267h33.201c30.418 0 55.166-24.748 55.166-55.167v-96.399c0-30.419-24.748-55.167-55.166-55.167zm25.166 151.566c0 13.877-11.289 25.167-25.166 25.167h-48.201-64.266-48.201c-13.877 0-25.166-11.29-25.166-25.167v-96.399c0-13.877 11.289-25.167 25.166-25.167h160.668c13.877 0 25.166 11.29 25.166 25.167z" fill="#c5e1e6"/><path d="m215.834 0h-80.336v30h80.336c13.877 0 25.166 11.29 25.166 25.167v96.399c0 13.877-11.289 25.167-25.166 25.167h-48.201-32.135v94.267h32.135c8.284 0 15-6.716 15-15v-49.267h33.201c30.418 0 55.166-24.748 55.166-55.167v-96.399c0-30.419-24.748-55.167-55.166-55.167z" fill="#8db9c4"/><path d="m464.867 305.267h-64.267-289.2-64.267c-8.284 0-15 6.716-15 15v176.733c0 8.284 6.716 15 15 15h64.267c8.284 0 15-6.716 15-15v-17.134h259.2v17.134c0 8.284 6.716 15 15 15h64.268c8.284 0 15-6.716 15-15v-176.733c-.001-8.285-6.717-15-15.001-15z" fill="#ca6d36"/><path d="m464.867 305.267h-64.267-144.6v174.6h129.6v17.133c0 8.284 6.716 15 15 15h64.268c8.284 0 15-6.716 15-15v-176.733c-.001-8.285-6.717-15-15.001-15z" fill="#b24d00"/><path d="m424.699 0h-64.266c-30.42 0-55.168 24.748-55.168 55.167v200.833c0 8.284 6.716 15 15 15s15-6.716 15-15h114.602c0 8.284 6.716 15 15 15s15-6.716 15-15v-200.833c0-30.419-24.748-55.167-55.168-55.167z" fill="#c5e1e6"/><path d="m424.699 0h-32.133v256h57.301c0 8.284 6.716 15 15 15s15-6.716 15-15v-200.833c0-30.419-24.748-55.167-55.168-55.167z" fill="#8db9c4"/><path d="m392.566 206.736c-3.949 0-7.81-1.601-10.609-4.4-2.79-2.79-4.391-6.649-4.391-10.6s1.601-7.82 4.391-10.61c2.8-2.79 6.66-4.39 10.609-4.39 3.951 0 7.811 1.6 10.611 4.39 2.789 2.79 4.389 6.66 4.389 10.61s-1.6 7.81-4.389 10.6c-2.8 2.8-6.659 4.4-10.611 4.4z" fill="#0065a3"/><path d="m464.867 241h-417.734c-25.989 0-47.133 21.144-47.133 47.133s21.144 47.134 47.133 47.134h417.734c25.989 0 47.133-21.145 47.133-47.134s-21.144-47.133-47.133-47.133z" fill="#ff8a3c"/><path d="m305.266 96.4h174.602v30h-174.602z" fill="#3d5959"/><path d="m464.867 241h-208.867v94.267h208.867c25.989 0 47.133-21.145 47.133-47.134s-21.144-47.133-47.133-47.133z" fill="#e56705"/><path d="m403.178 202.336c2.789-2.79 4.389-6.649 4.389-10.6s-1.6-7.82-4.389-10.61c-2.801-2.79-6.66-4.39-10.611-4.39v30c3.951 0 7.81-1.6 10.611-4.4z" fill="#005183"/><path d="m392.566 96.4h87.301v30h-87.301z" fill="#293939"/></svg>