<svg id="Capa_1" enable-background="new 0 0 512.002 512.002" height="512" viewBox="0 0 512.002 512.002" width="512" xmlns="http://www.w3.org/2000/svg"><path d="m180.35 168.501c-19.818-15.636-43.66-23.9-68.949-23.9s-49.131 8.264-68.949 23.897c-26.979 21.284-42.452 53.178-42.452 87.503v8.033c0 30.419 24.748 55.167 55.166 55.167h112.467c30.42 0 55.168-24.748 55.168-55.167v-8.033c0-34.324-15.473-66.216-42.451-87.5z" fill="#ff8a3c"/><path d="m180.35 168.501c-19.818-15.636-43.66-23.9-68.949-23.9h-.001v174.601h56.233c30.42 0 55.168-24.748 55.168-55.167v-8.033c0-34.325-15.473-66.217-42.451-87.501z" fill="#e56705"/><path d="m181.723 169.615c-.457-.372-.909-.749-1.373-1.114-19.818-15.636-43.66-23.9-68.949-23.9s-49.131 8.264-68.949 23.897c-.463.366-.914.742-1.371 1.114l70.321 70.323z" fill="#e7f0ef"/><path d="m181.723 169.615c-.457-.372-.909-.749-1.373-1.114-19.818-15.636-43.66-23.9-68.949-23.9h-.001v95.333l.002.002z" fill="#c5e1e6"/><path d="m111.4.001c-48.138 0-87.301 39.162-87.301 87.3s39.163 87.3 87.301 87.3c48.137 0 87.299-39.162 87.299-87.3s-39.162-87.3-87.299-87.3z" fill="#fdd1a3"/><path d="m111.4.001-.001 174.6h.001c48.137 0 87.299-39.162 87.299-87.3s-39.162-87.3-87.299-87.3z" fill="#ffbb85"/><path d="m469.549 168.501c-19.818-15.636-43.66-23.9-68.949-23.9s-49.131 8.264-68.949 23.897c-26.978 21.284-42.451 53.178-42.451 87.503v8.033c0 30.419 24.748 55.167 55.166 55.167h112.467c30.42 0 55.168-24.748 55.168-55.167v-8.033c-.001-34.324-15.474-66.216-42.452-87.5z" fill="#8db9c4"/><path d="m469.551 168.503c-19.818-15.636-43.66-23.9-68.949-23.9h-.001v174.6h56.233c30.42 0 55.168-24.748 55.168-55.167v-8.033c0-34.324-15.473-66.216-42.451-87.5z" fill="#678c97"/><path d="m470.922 169.615c-.457-.372-.909-.749-1.373-1.114-19.818-15.636-43.66-23.9-68.949-23.9s-49.131 8.264-68.949 23.897c-.463.366-.914.742-1.371 1.114l70.321 70.323z" fill="#e7f0ef"/><path d="m470.924 169.617c-.457-.372-.909-.749-1.373-1.114-19.818-15.636-43.66-23.9-68.949-23.9h-.001v95.333l.002.002z" fill="#c5e1e6"/><path d="m400.6.001c-48.138 0-87.301 39.162-87.301 87.3s39.163 87.3 87.301 87.3c48.137 0 87.299-39.162 87.299-87.3s-39.163-87.3-87.299-87.3z" fill="#ffcdbe"/><path d="m400.602.003h-.001v174.6h.001c48.137 0 87.299-39.162 87.299-87.3s-39.163-87.3-87.299-87.3z" fill="#ffbeaa"/><path d="m324.949 361.301c-19.818-15.636-43.66-23.9-68.949-23.9s-49.131 8.264-68.949 23.898c-26.979 21.284-42.451 53.178-42.451 87.503v8.033c0 30.419 24.748 55.167 55.166 55.167h112.467c30.42 0 55.168-24.748 55.168-55.167v-8.033c-.001-34.325-15.473-66.217-42.452-87.501z" fill="#3d5959"/><path d="m324.949 361.301c-19.818-15.636-43.66-23.9-68.949-23.9h-.001v174.601h56.233c30.42 0 55.168-24.748 55.168-55.167v-8.033c0-34.325-15.472-66.217-42.451-87.501z" fill="#293939"/><path d="m326.322 362.415c-.457-.372-.909-.749-1.373-1.114-19.818-15.636-43.66-23.9-68.949-23.9s-49.131 8.264-68.949 23.898c-.463.366-.914.742-1.371 1.114l70.321 70.323z" fill="#e7f0ef"/><path d="m326.322 362.415c-.457-.372-.909-.749-1.373-1.114-19.818-15.636-43.66-23.9-68.949-23.9h-.001v95.333l.002.002z" fill="#c5e1e6"/><path d="m256 192.801c-48.138 0-87.301 39.162-87.301 87.3s39.163 87.3 87.301 87.3c48.137 0 87.299-39.162 87.299-87.3s-39.162-87.3-87.299-87.3z" fill="#a34f3e"/><path d="m256 192.801h-.001v174.6h.001c48.137 0 87.299-39.162 87.299-87.3s-39.162-87.3-87.299-87.3z" fill="#873f2e"/></svg>