<svg id="Capa_1" enable-background="new 0 0 511.993 511.993" height="512" viewBox="0 0 511.993 511.993" width="512" xmlns="http://www.w3.org/2000/svg"><path d="m432.482 363.532-45.445-45.44c-10.388-10.389-24.242-16.109-39.009-16.109-14.764 0-28.616 5.719-39.008 16.107l-17.799 17.801-115.109-115.125c4.876-4.877 11.069-11.072 17.792-17.793 10.387-10.388 16.106-24.242 16.105-39.012-.002-14.767-5.725-28.621-16.111-39.006l-45.436-45.441c-10.389-10.388-24.243-16.108-39.011-16.108-14.767 0-28.62 5.72-39.011 16.108l-28.114 28.116c-.099.094-.196.188-.293.285-27.107 27.108-42.035 63.152-42.033 101.494.001 38.342 14.934 74.386 42.043 101.491l159.044 159.049c27.112 27.113 63.158 42.043 101.499 42.043 38.197 0 74.117-14.82 101.193-41.741.104-.098.205-.197.307-.299l28.4-28.4c21.509-21.511 21.506-56.511-.004-78.02z" fill="#3d5959"/><g fill="#a8ebfa"><path d="m437.019 74.974c-71.402-71.403-178.479-94.182-272.794-58.03-7.734 2.965-11.602 11.639-8.637 19.374s11.641 11.605 19.375 8.638c83.268-31.919 177.804-11.809 240.844 51.232 63.041 63.036 83.148 157.576 51.227 240.852-2.966 7.735.901 16.41 8.637 19.375 1.766.678 3.581.998 5.366.998 6.032 0 11.721-3.666 14.009-9.635 36.157-94.321 13.38-201.403-58.027-272.804z"/><path d="m218.373 67.97c-8.125 1.62-13.398 9.519-11.779 17.643s9.519 13.396 17.643 11.779c53.199-10.604 107.827 5.935 146.126 44.239 38.054 38.054 54.655 92.358 44.409 145.266-1.574 8.132 3.742 16.002 11.875 17.577.963.186 1.922.276 2.868.276 7.04 0 13.321-4.981 14.71-12.151 12.143-62.702-7.539-127.07-52.648-172.18-45.402-45.41-110.149-65.014-173.204-52.449z"/><path d="m346.133 165.864c-15.502-15.505-34.801-26.794-55.811-32.647-7.978-2.225-16.252 2.444-18.475 10.425-2.224 7.98 2.443 16.252 10.424 18.476 16.043 4.469 30.789 13.1 42.647 24.959 11.862 11.863 20.495 26.612 24.964 42.651 1.848 6.634 7.875 10.979 14.441 10.979 1.332 0 2.687-.179 4.033-.554 7.98-2.224 12.648-10.495 10.424-18.476-5.849-21.005-17.139-40.306-32.647-55.813z"/></g><path d="m201.087 469.949c27.112 27.113 63.158 42.043 101.499 42.043 38.197 0 74.117-14.82 101.193-41.741.104-.098.205-.197.307-.299l28.4-28.4c21.509-21.511 21.506-56.511-.005-78.02l-45.445-45.44c-10.388-10.389-24.242-16.109-39.009-16.109-14.764 0-28.616 5.719-39.008 16.107l-17.799 17.801-57.554-57.562-112.105 112.091z" fill="#293939"/><path d="m437.032 74.988-21.214 21.212c63.032 63.036 83.135 157.569 51.215 240.84-2.966 7.735.901 16.41 8.637 19.375 1.766.678 3.581.998 5.366.998 6.032 0 11.721-3.666 14.009-9.635 36.155-94.315 13.383-201.389-58.013-272.79z" fill="#76e2f8"/><path d="m414.772 286.896c-1.574 8.132 3.742 16.002 11.875 17.577.963.186 1.922.276 2.868.276 7.04 0 13.321-4.981 14.71-12.151 12.143-62.697-7.536-127.061-52.639-172.169l-21.214 21.211c38.046 38.053 54.645 92.354 44.4 145.256z" fill="#76e2f8"/><path d="m349.883 229.727c1.848 6.634 7.875 10.979 14.441 10.979 1.332 0 2.687-.179 4.033-.554 7.98-2.224 12.648-10.495 10.424-18.476-5.85-21.002-17.139-40.301-32.643-55.806l-21.214 21.211c11.86 11.863 20.491 26.61 24.959 42.646z" fill="#76e2f8"/></svg>