<svg id="Capa_1" enable-background="new 0 0 512 512" height="512" viewBox="0 0 512 512" width="512" xmlns="http://www.w3.org/2000/svg"><path d="m336.339 400.6h-281.172c-22.092 0-40.167-18.074-40.167-40.166v-305.267c0-22.092 18.075-40.167 40.167-40.167h401.667c22.092 0 40.166 18.075 40.166 40.167v305.267c0 22.093-18.074 40.166-40.166 40.166h-24.094" fill="#e7f0ef"/><path d="m456.834 15h-200.835v385.6h80.34 96.401 24.094c22.092 0 40.166-18.073 40.166-40.166v-305.267c0-22.092-18.074-40.167-40.166-40.167z" fill="#c5e1e6"/><path d="m456.834 415.6h-24.094c-8.284 0-15-6.716-15-15s6.716-15 15-15h24.094c13.877 0 25.166-11.289 25.166-25.166v-305.267c0-13.877-11.289-25.167-25.166-25.167h-401.667c-13.877 0-25.167 11.29-25.167 25.167v305.267c0 13.876 11.29 25.166 25.167 25.166h281.172c8.284 0 15 6.716 15 15s-6.716 15-15 15h-281.172c-30.419 0-55.167-24.747-55.167-55.166v-305.267c0-30.419 24.748-55.167 55.167-55.167h401.667c30.418 0 55.166 24.748 55.166 55.167v305.267c0 30.419-24.748 55.166-55.166 55.166z" fill="#ff8a3c"/><path d="m336.339 415.6c8.284 0 15-6.716 15-15s-6.716-15-15-15h-80.34v30z" fill="#e56705"/><path d="m456.834 0h-200.835v30h200.835c13.877 0 25.166 11.29 25.166 25.167v305.267c0 13.877-11.289 25.166-25.166 25.166h-24.094c-8.284 0-15 6.716-15 15s6.716 15 15 15h24.094c30.418 0 55.166-24.747 55.166-55.166v-305.267c0-30.419-24.748-55.167-55.166-55.167z" fill="#e56705"/><path d="m432.733 337.4c-8.284 0-15 6.716-15 15h-66.399c0-8.284-6.716-15-15-15s-15 6.716-15 15v144.6c0 5.532 3.045 10.615 7.922 13.225 4.878 2.611 10.796 2.324 15.398-.744l39.88-26.586 39.879 26.586c2.51 1.674 5.411 2.52 8.321 2.52 2.426 0 4.859-.588 7.076-1.774 4.878-2.61 7.923-7.693 7.923-13.226v-144.601c0-8.284-6.715-15-15-15z" fill="#ff5b5b"/><path d="m432.733 337.4c-8.284 0-15 6.716-15 15h-33.2v130.495l.001-.001 39.879 26.586c2.51 1.674 5.411 2.52 8.321 2.52 2.426 0 4.859-.588 7.076-1.774 4.878-2.61 7.923-7.693 7.923-13.226v-144.6c0-8.284-6.715-15-15-15z" fill="#ff0059"/><g fill="#3d5959"><path d="m368.467 110.333h-224.933c-8.284 0-15-6.716-15-15s6.716-15 15-15h224.933c8.284 0 15 6.716 15 15s-6.716 15-15 15z"/><path d="m432.733 174.6h-353.466c-8.284 0-15-6.716-15-15s6.716-15 15-15h353.467c8.284 0 15 6.716 15 15-.001 8.284-6.716 15-15.001 15z"/><path d="m432.733 238.867h-353.466c-8.284 0-15-6.716-15-15s6.716-15 15-15h353.467c8.284 0 15 6.716 15 15-.001 8.284-6.716 15-15.001 15z"/><path d="m242.067 335.267h-162.8c-8.284 0-15-6.716-15-15s6.716-15 15-15h162.801c8.284 0 15 6.716 15 15s-6.716 15-15.001 15z"/></g><path d="m384.534 289.2c-34.849 0-63.2 28.352-63.2 63.2s28.351 63.199 63.2 63.199 63.199-28.351 63.199-63.199-28.35-63.2-63.199-63.2z" fill="#ffd400"/><path d="m383.467 95.333c0-8.284-6.716-15-15-15h-112.468v30h112.468c8.284 0 15-6.716 15-15z" fill="#293939"/><path d="m447.733 159.6c0-8.284-6.716-15-15-15h-176.734v30h176.734c8.285 0 15-6.716 15-15z" fill="#293939"/><path d="m432.733 208.867h-176.734v30h176.734c8.284 0 15-6.716 15-15s-6.715-15-15-15z" fill="#293939"/><path d="m384.534 289.2s0 0-.001 0v126.4h.001c34.849 0 63.199-28.351 63.199-63.199s-28.35-63.201-63.199-63.201z" fill="#ff9f04"/></svg>