<svg id="Capa_1" enable-background="new 0 0 512 512" height="512" viewBox="0 0 512 512" width="512" xmlns="http://www.w3.org/2000/svg"><path d="m497 200.832c-8.284 0-15 6.716-15 15l-452 .001c0-8.284-6.716-15-15-15s-15 6.716-15 15v241c0 30.419 24.748 55.167 55.167 55.167l401.667-.002c30.418 0 55.166-24.747 55.166-55.166v-241c0-8.284-6.716-15-15-15z" fill="#00ab5e"/><path d="m497 200.832c-8.284 0-15 6.716-15 15l-226.001.001v296.166l200.835-.001c30.418 0 55.166-24.747 55.166-55.166v-241c0-8.284-6.716-15-15-15z" fill="#00884a"/><path d="m497 120.498c-8.284 0-15 6.716-15 15l-452 .002c0-8.284-6.716-15-15-15s-15 6.716-15 15v241c0 30.419 24.748 55.167 55.167 55.167l401.667-.002c30.418 0 55.166-24.748 55.166-55.167v-241c0-8.284-6.716-15-15-15z" fill="#1fbf66"/><path d="m497 120.498c-8.284 0-15 6.716-15 15l-226.001.001v296.167l200.835-.001c30.418 0 55.166-24.748 55.166-55.167v-241c0-8.284-6.716-15-15-15z" fill="#00ab5e"/><path d="m456.834 0h-401.667c-30.419 0-55.167 24.748-55.167 55.167v241c0 30.419 24.748 55.166 55.167 55.166h401.667c30.419 0 55.166-24.747 55.166-55.166v-241c0-30.419-24.747-55.167-55.166-55.167z" fill="#54e360"/><path d="m456.834 0h-200.835v351.333h200.835c30.419 0 55.166-24.747 55.166-55.166v-241c0-30.419-24.747-55.167-55.166-55.167z" fill="#1fbf66"/><path d="m126.4 15c0-5.087-.35-10.093-1.014-15h-70.22c-30.418 0-55.166 24.748-55.166 55.167v70.221c4.908.662 9.914 1.013 15 1.013 61.426-.001 111.4-49.974 111.4-111.401z" fill="#00ab5e"/><path d="m512 296.167v-70.219c-4.908-.664-9.914-1.014-15-1.014-61.426 0-111.4 49.974-111.4 111.4 0 5.086.35 10.091 1.014 14.998h70.221c30.418.001 55.165-24.746 55.165-55.165z" fill="#00884a"/><path d="m497 126.4c5.086 0 10.092-.351 15-1.013v-70.22c0-30.419-24.747-55.167-55.166-55.167h-70.221c-.664 4.907-1.014 9.913-1.014 15 .001 61.427 49.975 111.4 111.401 111.4z" fill="#00884a"/><path d="m15 224.935c-5.086 0-10.092.35-15 1.014v70.219c0 30.419 24.748 55.166 55.167 55.166h70.22c.664-4.907 1.014-9.912 1.014-14.998-.001-61.428-49.975-111.401-111.401-111.401z" fill="#00ab5e"/><path d="m256 96.4c-43.707 0-79.267 35.559-79.267 79.267s35.56 79.267 79.267 79.267 79.267-35.559 79.267-79.267-35.56-79.267-79.267-79.267z" fill="#00ab5e"/><path d="m256 96.4h-.001v158.533h.001c43.707 0 79.267-35.559 79.267-79.267s-35.56-79.266-79.267-79.266z" fill="#00884a"/></svg>