<svg id="Capa_1" enable-background="new 0 0 512.001 512.001" height="512" viewBox="0 0 512.001 512.001" width="512" xmlns="http://www.w3.org/2000/svg"><path d="m137.658 43.932-33.826-4.916-15.133-30.655c-2.527-5.12-7.742-8.361-13.453-8.361-5.709.001-10.923 3.242-13.449 8.362l-15.126 30.654-33.828 4.916c-5.649.82-10.345 4.778-12.108 10.209-1.765 5.43-.293 11.391 3.795 15.376l24.479 23.859-5.78 33.691c-.966 5.628 1.349 11.315 5.968 14.671 2.613 1.899 5.707 2.865 8.818 2.865 2.387 0 4.784-.569 6.979-1.724l30.256-15.908 30.26 15.909c2.211 1.161 4.604 1.741 7.029 1.723 8.271-.016 14.971-6.726 14.971-15 0-1.151-.129-2.273-.375-3.351l-5.641-32.877 24.478-23.859c4.088-3.985 5.56-9.946 3.795-15.376s-6.459-9.387-12.109-10.208z" fill="#ffd400"/><path d="m511.266 54.141c-1.764-5.431-6.458-9.388-12.108-10.209l-33.826-4.916-15.133-30.655c-2.527-5.12-7.742-8.361-13.453-8.361-5.709.001-10.923 3.242-13.449 8.362l-15.126 30.653-33.828 4.916c-5.649.82-10.345 4.778-12.108 10.209-1.765 5.43-.293 11.391 3.795 15.376l24.478 23.859-5.78 33.691c-.966 5.628 1.349 11.315 5.968 14.671 2.613 1.899 5.707 2.865 8.818 2.865 2.387 0 4.784-.569 6.978-1.724l30.256-15.908 30.26 15.909c2.211 1.161 4.598 1.741 7.029 1.723 8.271-.016 14.971-6.726 14.971-15 0-1.151-.129-2.273-.375-3.351l-5.641-32.877 24.479-23.859c4.088-3.983 5.56-9.944 3.795-15.374z" fill="#ff9f04"/><path d="m318.406 43.932-33.823-4.916-15.131-30.653c-2.528-5.121-7.743-8.363-13.452-8.363-5.711 0-10.925 3.242-13.451 8.362l-15.127 30.653-33.83 4.916c-5.65.82-10.346 4.778-12.109 10.209-1.765 5.43-.293 11.392 3.796 15.376l24.48 23.86-5.78 33.69c-.966 5.627 1.349 11.315 5.968 14.671 4.619 3.357 10.743 3.799 15.797 1.142l30.256-15.907 30.258 15.908c2.195 1.154 4.592 1.724 6.979 1.724h.047c8.273-.013 14.975-6.724 14.975-15 0-1.151-.129-2.273-.375-3.351l-5.641-32.877 24.477-23.859c4.088-3.985 5.56-9.946 3.795-15.377-1.765-5.43-6.459-9.387-12.109-10.208z" fill="#ffd400"/><path d="m324.95 361.3c-19.818-15.636-43.66-23.9-68.949-23.9s-49.131 8.264-68.949 23.898c-26.979 21.283-42.452 53.177-42.452 87.502v8.033c0 30.419 24.748 55.167 55.166 55.167h112.467c30.42 0 55.168-24.748 55.168-55.167v-8.033c0-34.324-15.473-66.216-42.451-87.5z" fill="#3d5959"/><path d="m324.95 361.3c-19.818-15.636-43.66-23.9-68.949-23.9 0 0-.001 0-.002 0v174.6h56.234c30.42 0 55.168-24.748 55.168-55.167v-8.033c0-34.324-15.473-66.216-42.451-87.5z" fill="#293939"/><path d="m326.323 362.414c-.457-.372-.909-.749-1.373-1.114-19.818-15.636-43.66-23.9-68.949-23.9s-49.131 8.264-68.949 23.898c-.463.366-.914.742-1.371 1.114l70.321 70.323z" fill="#e7f0ef"/><path d="m326.323 362.414c-.457-.372-.909-.749-1.373-1.114-19.818-15.636-43.66-23.9-68.949-23.9 0 0-.001 0-.002 0v95.332l.003.003z" fill="#c5e1e6"/><path d="m256 192.8c-48.138 0-87.301 39.162-87.301 87.3s39.163 87.3 87.301 87.3c48.137 0 87.299-39.162 87.299-87.3s-39.162-87.3-87.299-87.3z" fill="#fdd1a3"/><path d="m286.258 142.88c2.195 1.154 4.592 1.724 6.979 1.724h.047c8.273-.013 14.975-6.724 14.975-15 0-1.151-.129-2.273-.375-3.351l-5.641-32.877 24.477-23.859c4.088-3.985 5.56-9.946 3.795-15.377-1.764-5.43-6.458-9.387-12.108-10.208l-33.823-4.916-15.132-30.653c-2.528-5.121-7.743-8.363-13.452-8.363h-.002v126.973l.002-.001z" fill="#ff9f04"/><path d="m256 192.8s-.001 0-.002 0v174.6h.001c48.138 0 87.3-39.162 87.3-87.3s-39.162-87.3-87.299-87.3z" fill="#ffbb85"/></svg>