<svg id="Capa_1" enable-background="new 0 0 512 512" height="512" viewBox="0 0 512 512" width="512" xmlns="http://www.w3.org/2000/svg"><path d="m437.02 74.98c-48.352-48.351-112.639-74.98-181.02-74.98-68.38 0-132.667 26.629-181.02 74.98-48.351 48.353-74.98 112.64-74.98 181.02s26.629 132.667 74.98 181.02c48.353 48.351 112.64 74.98 181.02 74.98 68.381 0 132.668-26.629 181.02-74.98 48.352-48.353 74.98-112.64 74.98-181.02s-26.628-132.667-74.98-181.02z" fill="#c5e1e6"/><path d="m437.02 74.98c-48.352-48.351-112.639-74.98-181.02-74.98v512c68.381 0 132.668-26.629 181.02-74.98 48.352-48.353 74.98-112.64 74.98-181.02s-26.628-132.667-74.98-181.02z" fill="#8db9c4"/><path d="m256 64.267c-105.723 0-191.734 86.011-191.734 191.733s86.011 191.733 191.734 191.733c105.722 0 191.732-86.012 191.732-191.733s-86.01-191.733-191.732-191.733z" fill="#e7f0ef"/><path d="m256 64.267v383.467c105.722 0 191.732-86.012 191.732-191.733s-86.01-191.734-191.732-191.734z" fill="#c5e1e6"/><path d="m200.355 303.135c-5.184 0-10.226-2.69-13.004-7.503-4.142-7.175-1.684-16.349 5.491-20.49l48.158-27.802v-87.74c0-8.284 6.717-15 15-15 8.285 0 15 6.716 15 15v96.4c0 5.36-2.858 10.311-7.5 12.99l-55.658 32.132c-2.362 1.364-4.942 2.013-7.487 2.013z" fill="#3d5959"/><path d="m256 144.6v128.72l7.5-4.329c4.642-2.679 7.5-7.63 7.5-12.99v-96.4c0-8.286-6.715-15.001-15-15.001z" fill="#293939"/></svg>