<svg id="Capa_1" enable-background="new 0 0 512 512" height="512" viewBox="0 0 512 512" width="512" xmlns="http://www.w3.org/2000/svg"><path d="m256 417.733c-25.99 0-47.134 21.144-47.134 47.133s21.144 47.134 47.134 47.134c25.988 0 47.132-21.145 47.132-47.134s-21.144-47.133-47.132-47.133z" fill="#3d5959"/><path d="m256 512c25.988 0 47.132-21.145 47.132-47.134s-21.144-47.133-47.132-47.133c-.001 0-.002 0-.003 0v94.267z" fill="#293939"/><path d="m384.533 417.733c-25.989 0-47.133 21.144-47.133 47.133s21.144 47.134 47.133 47.134c25.99 0 47.134-21.145 47.134-47.134s-21.144-47.133-47.134-47.133z" fill="#293939"/><path d="m127.467 417.733c-25.99 0-47.134 21.144-47.134 47.133s21.144 47.134 47.134 47.134c25.989 0 47.133-21.145 47.133-47.134s-21.144-47.133-47.133-47.133z" fill="#3d5959"/><path d="m344.366 0h-176.732c-30.419 0-55.167 24.747-55.167 55.166v208.867c0 30.419 24.748 55.167 55.167 55.167h176.732c30.419 0 55.167-24.748 55.167-55.167v-208.867c0-30.419-24.748-55.166-55.167-55.166z" fill="#ff8a3c"/><path d="m399.533 264.033v-208.867c0-30.419-24.748-55.166-55.167-55.166h-88.369v319.2h88.369c30.419 0 55.167-24.748 55.167-55.167z" fill="#e56705"/><path d="m384.533 417.733h-113.533v-49.267c0-8.284-6.716-15-15-15s-15 6.716-15 15v49.267h-113.533c-8.284 0-15 6.716-15 15s6.716 15 15 15h257.066c8.284 0 15-6.716 15-15s-6.716-15-15-15z" fill="#c5e1e6"/><path d="m384.533 447.733c8.284 0 15-6.716 15-15s-6.716-15-15-15h-113.533v-49.267c0-8.284-6.716-15-15-15-.001 0-.002 0-.003 0v94.267z" fill="#8db9c4"/><path d="m368.467 289.2h-224.934c-25.989 0-47.133 21.144-47.133 47.133s21.143 47.134 47.133 47.134h224.934c25.989 0 47.133-21.145 47.133-47.134s-21.144-47.133-47.133-47.133z" fill="#ca6d36"/><path d="m368.467 289.2h-112.47v94.267h112.47c25.989 0 47.133-21.145 47.133-47.134s-21.144-47.133-47.133-47.133z" fill="#b24d00"/></svg>