<svg id="Capa_1" enable-background="new 0 0 512 512" height="512" viewBox="0 0 512 512" width="512" xmlns="http://www.w3.org/2000/svg"><path d="m440.767 47.133h-369.534c-22.092 0-40.167 18.076-40.167 40.168v313.299h449.866v-313.299c.001-22.092-18.073-40.168-40.165-40.168z" fill="#e7f0ef"/><path d="m480.933 87.301c0-22.092-18.073-40.168-40.166-40.168h-184.769v353.467h224.935z" fill="#c5e1e6"/><path d="m480.933 415.6c-8.284 0-15-6.716-15-15v-313.299c0-13.878-11.29-25.168-25.166-25.168h-369.534c-13.877 0-25.167 11.29-25.167 25.168v313.299c0 8.284-6.716 15-15 15s-15-6.716-15-15v-313.299c0-30.42 24.748-55.168 55.167-55.168h369.533c30.419 0 55.166 24.748 55.166 55.168v313.299c.001 8.284-6.715 15-14.999 15z" fill="#3d5959"/><path d="m440.767 32.133h-184.769v30h184.769c13.876 0 25.166 11.29 25.166 25.168v313.299c0 8.284 6.716 15 15 15s15-6.716 15-15v-313.299c0-30.42-24.748-55.168-55.166-55.168z" fill="#293939"/><path d="m304.199 190.666c-8.284 0-15-6.716-15-15v-49.265h-66.399v49.265c0 8.284-6.716 15-15 15s-15-6.716-15-15v-64.265c0-8.285 6.716-15 15-15h96.399c8.284 0 15 6.715 15 15v64.265c0 8.284-6.716 15-15 15z" fill="#ca6d36"/><path d="m289.198 175.667c0 8.284 6.716 15 15 15s15-6.716 15-15v-64.267c0-8.284-6.716-15-15-15h-48.198v30h33.198z" fill="#b24d00"/><path d="m328.3 160.666h-144.601c-30.418 0-55.166 24.748-55.166 55.168v80.332c0 30.42 24.748 55.168 55.166 55.168h144.601c30.419 0 55.166-24.748 55.166-55.168v-80.332c0-30.42-24.747-55.168-55.166-55.168z" fill="#ff8a3c"/><path d="m328.3 160.667h-72.3v190.666h72.3c30.419 0 55.166-24.747 55.166-55.166v-80.334c0-30.419-24.747-55.166-55.166-55.166z" fill="#e56705"/><path d="m497 385.6h-482c-8.284 0-15 6.716-15 15 0 43.708 35.559 79.268 79.267 79.268h353.468c43.707 0 79.266-35.56 79.266-79.268-.001-8.285-6.717-15-15.001-15z" fill="#c5e1e6"/><path d="m497 385.6h-241.002v94.268h176.736c43.707 0 79.266-35.56 79.266-79.268 0-8.285-6.716-15-15-15z" fill="#8db9c4"/><path d="m128.533 224.934h254.933v30h-254.933z" fill="#ca6d36"/><path d="m256 224.934h127.466v30h-127.466z" fill="#b24d00"/></svg>