<svg id="Capa_1" enable-background="new 0 0 512.001 512.001" height="512" viewBox="0 0 512.001 512.001" width="512" xmlns="http://www.w3.org/2000/svg"><path d="m497 128.535h-482c-8.284 0-15 6.716-15 15v313.3c0 30.418 24.749 55.165 55.169 55.165h401.665c30.418 0 55.166-24.747 55.166-55.165v-313.3c0-8.284-6.716-15-15-15z" fill="#e7f0ef"/><path d="m497.001 128.534h-241v383.466h200.833c30.419 0 55.167-24.747 55.167-55.166v-313.3c0-8.285-6.716-15-15-15z" fill="#c5e1e6"/><path d="m304.2 287.068c-8.284 0-15-6.716-15-15v-49.267h-66.399v49.267c0 8.284-6.716 15-15 15s-15-6.716-15-15v-64.267c0-8.284 6.716-15 15-15h96.399c8.284 0 15 6.716 15 15v64.267c0 8.284-6.716 15-15 15z" fill="#ca6d36"/><path d="m289.199 272.068c0 8.284 6.716 15 15 15s15-6.716 15-15v-64.267c0-8.284-6.716-15-15-15h-48.199v30h33.199z" fill="#b24d00"/><path d="m456.834 0h-401.665c-30.42 0-55.169 24.748-55.169 55.167v88.367h512v-88.367c0-30.419-24.748-55.167-55.166-55.167z" fill="#0065a3"/><path d="m512.001 55.168c0-30.42-24.748-55.168-55.167-55.168h-200.833v143.533h256z" fill="#005183"/><path d="m79.268 94.266c-3.95 0-7.82-1.6-10.61-4.39-2.79-2.8-4.39-6.66-4.39-10.61 0-3.949 1.6-7.81 4.39-10.6 2.79-2.8 6.66-4.4 10.61-4.4 3.949 0 7.81 1.601 10.6 4.4 2.8 2.79 4.4 6.65 4.4 10.6s-1.601 7.811-4.4 10.61c-2.791 2.79-6.651 4.39-10.6 4.39z" fill="#ff5b5b"/><path d="m207.797 94.266c-3.939 0-7.81-1.6-10.6-4.39-2.8-2.8-4.4-6.66-4.4-10.61 0-3.949 1.601-7.81 4.4-10.6 2.79-2.8 6.66-4.4 10.6-4.4 3.95 0 7.82 1.601 10.61 4.4 2.79 2.79 4.4 6.65 4.4 10.6s-1.609 7.811-4.4 10.61c-2.79 2.79-6.66 4.39-10.61 4.39z" fill="#54e360"/><path d="m143.537 94.266c-3.95 0-7.82-1.6-10.61-4.39s-4.39-6.66-4.39-10.61c0-3.949 1.6-7.819 4.39-10.6 2.79-2.8 6.66-4.4 10.61-4.4s7.811 1.601 10.6 4.4c2.801 2.79 4.4 6.65 4.4 10.6s-1.6 7.82-4.4 10.61c-2.789 2.79-6.65 4.39-10.6 4.39z" fill="#ffd400"/><path d="m432.735 94.268h-160.668c-8.284 0-15-6.716-15-15s6.716-15 15-15h160.668c8.284 0 15 6.716 15 15s-6.715 15-15 15z" fill="#c5e1e6"/><path d="m328.301 257.068h-144.601c-30.419 0-55.166 24.747-55.166 55.166v80.334c0 30.419 24.747 55.166 55.166 55.166h144.601c30.418 0 55.166-24.747 55.166-55.166v-80.334c0-30.419-24.748-55.166-55.166-55.166z" fill="#ff8a3c"/><path d="m328.301 257.068h-72.301v190.666h72.301c30.418 0 55.166-24.747 55.166-55.166v-80.334c0-30.419-24.748-55.166-55.166-55.166z" fill="#e56705"/><path d="m128.534 321.335h254.933v30h-254.933z" fill="#ca6d36"/><path d="m256 321.335h127.467v30h-127.467z" fill="#b24d00"/></svg>