<svg id="Capa_1" enable-background="new 0 0 512.002 512.002" height="512" viewBox="0 0 512.002 512.002" width="512" xmlns="http://www.w3.org/2000/svg"><path d="m456.837 79.269c22.09 0 40.165 18.074 40.165 40.166v273.133c0 22.092-18.075 40.166-40.165 40.166h-401.67c-22.092-.001-40.167-18.075-40.167-40.167v-273.132c0-22.092 18.075-40.166 40.167-40.166z" fill="#e7f0ef"/><path d="m15 257.067v135.5c0 22.092 18.075 40.166 40.167 40.166h401.67c22.09 0 40.165-18.074 40.165-40.166v-135.5z" fill="#c5e1e6"/><path d="m336.335 222.802c-8.284 0-15-6.716-15-15v-49.268h-66.399v49.268c0 8.284-6.716 15-15 15s-15-6.716-15-15v-64.268c0-8.284 6.716-15 15-15h96.399c8.284 0 15 6.716 15 15v64.268c0 8.284-6.716 15-15 15z" fill="#ca6d36"/><path d="m321.334 207.801c0 8.284 6.716 15 15 15s15-6.716 15-15v-64.267c0-8.284-6.716-15-15-15h-48.198v30h33.198z" fill="#b24d00"/><path d="m456.837 64.269h-401.67c-30.42 0-55.167 24.747-55.167 55.166v32.133 208.867 32.133c0 30.419 24.747 55.166 55.167 55.166h401.67c30.418 0 55.165-24.747 55.165-55.166v-273.133c0-30.419-24.747-55.166-55.165-55.166zm25.165 328.298c0 13.878-11.289 25.166-25.165 25.166h-401.67c-13.877 0-25.167-11.288-25.167-25.166v-20.421l52.905-13.227c6.677-1.669 11.361-7.669 11.361-14.552v-176.731c0-6.883-4.684-12.883-11.361-14.552l-52.905-13.227v-20.422c0-13.877 11.29-25.166 25.167-25.166h401.67c13.876 0 25.165 11.289 25.165 25.166z" fill="#3d5959"/><path d="m482.002 257.067v135.5c0 13.878-11.289 25.166-25.165 25.166h-401.67c-13.877 0-25.167-11.288-25.167-25.166v-20.421l52.905-13.227c6.677-1.669 11.361-7.669 11.361-14.552v-87.301h-94.266v103.367 32.133c0 30.419 24.747 55.166 55.167 55.166h401.67c30.418 0 55.165-24.747 55.165-55.166v-135.5h-30z" fill="#293939"/><path d="m360.436 192.802h-144.601c-30.418 0-55.166 24.747-55.166 55.166v80.334c0 30.419 24.748 55.166 55.166 55.166h144.601c30.419 0 55.166-24.747 55.166-55.166v-80.334c0-30.419-24.748-55.166-55.166-55.166z" fill="#ff8a3c"/><path d="m360.436 192.801h-72.3v190.666h72.3c30.419 0 55.166-24.747 55.166-55.166v-80.334c0-30.419-24.748-55.166-55.166-55.166z" fill="#e56705"/><path d="m160.669 257.067h254.933v30h-254.933z" fill="#ca6d36"/><path d="m288.136 257.067h127.466v30h-127.466z" fill="#b24d00"/></svg>