<svg id="Capa_1" enable-background="new 0 0 512 512" height="512" viewBox="0 0 512 512" width="512" xmlns="http://www.w3.org/2000/svg"><path d="m330.516 54.141c-1.764-5.431-6.458-9.388-12.108-10.209l-33.825-4.916-15.132-30.654c-2.527-5.121-7.742-8.362-13.452-8.362s-10.924 3.242-13.45 8.362l-15.127 30.653-33.829 4.916c-5.649.82-10.345 4.778-12.108 10.209-1.765 5.43-.293 11.391 3.795 15.376l24.479 23.86-5.777 33.692c-.965 5.628 1.349 11.315 5.968 14.671 2.613 1.898 5.708 2.864 8.817 2.864 2.389 0 4.785-.569 6.98-1.724l30.253-15.905 30.26 15.908c2.193 1.153 4.59 1.723 6.979 1.723h.041c8.274-.011 14.981-6.723 14.981-15 0-1.151-.131-2.274-.377-3.352l-5.641-32.877 24.478-23.859c4.088-3.986 5.559-9.947 3.795-15.376z" fill="#ffd400"/><path d="m408.634 337.401c-36.573 0-70.778 19.625-89.267 51.219-4.184 7.149-1.779 16.338 5.37 20.523 2.386 1.396 4.998 2.043 7.576 2.04l-.002 59.269c-3.882 0-7.761 1.492-10.698 4.48-5.807 5.908-5.725 15.405.184 21.212 10.402 10.225 24.124 15.856 38.637 15.856h96.399c30.419 0 55.167-24.747 55.167-55.166v-16.066c0-56.997-46.37-103.367-103.366-103.367z" fill="#8db9c4"/><path d="m408.634 337.401-.001 174.599h48.201c30.418 0 55.166-24.747 55.166-55.166v-16.066c0-56.997-46.369-103.367-103.366-103.367z" fill="#678c97"/><path d="m179.685 470.454.003-59.271c2.579.003 5.192-.646 7.579-2.042 7.148-4.185 9.553-13.373 5.367-20.522-18.492-31.593-52.698-51.218-89.269-51.218-56.995 0-103.365 46.37-103.365 103.367v16.066c0 30.419 24.748 55.166 55.167 55.166h96.399c14.512 0 28.232-5.631 38.633-15.854 5.908-5.807 5.99-15.304.184-21.212-2.936-2.986-6.816-4.478-10.698-4.48z" fill="#3d5959"/><path d="m103.367 337.401-.001 174.599h48.201c30.419 0 55.166-24.747 55.166-55.166v-16.066c0-56.997-46.37-103.367-103.366-103.367z" fill="#293939"/><path d="m256 337.401c-56.996 0-103.366 46.369-103.366 103.366v16.066c0 30.419 24.747 55.166 55.166 55.166h96.4c30.419 0 55.166-24.747 55.166-55.166v-16.066c0-56.996-46.37-103.366-103.366-103.366z" fill="#ff8a3c"/><path d="m256 337.401h-.001v174.599h48.201c30.419 0 55.166-24.747 55.166-55.166v-16.066c0-56.997-46.37-103.367-103.366-103.367z" fill="#e56705"/><path d="m103.366 192.801c-48.138 0-87.3 39.162-87.3 87.3s39.162 87.301 87.3 87.301 87.301-39.163 87.301-87.301-39.163-87.3-87.301-87.3z" fill="#a34f3e"/><path d="m103.367 192.801-.001 174.601h.001c48.137 0 87.3-39.163 87.3-87.301s-39.163-87.3-87.3-87.3z" fill="#873f2e"/><path d="m408.634 192.801c-48.138 0-87.301 39.162-87.301 87.3s39.163 87.301 87.301 87.301 87.3-39.163 87.3-87.301-39.162-87.3-87.3-87.3z" fill="#fdd1a3"/><path d="m408.634 192.801-.001 174.601h.001c48.138 0 87.3-39.163 87.3-87.301s-39.162-87.3-87.3-87.3z" fill="#ffbb85"/><path d="m256 192.801c-48.137 0-87.3 39.162-87.3 87.3s39.163 87.301 87.3 87.301 87.3-39.163 87.3-87.301-39.163-87.3-87.3-87.3z" fill="#ffcdbe"/><path d="m286.26 142.882c2.193 1.153 4.59 1.723 6.979 1.723h.041c8.274-.011 14.981-6.723 14.981-15 0-1.151-.131-2.274-.377-3.352l-5.641-32.877 24.478-23.859c4.089-3.985 5.561-9.946 3.796-15.376-1.764-5.431-6.458-9.388-12.108-10.209l-33.825-4.916-15.133-30.654c-2.527-5.121-7.742-8.362-13.452-8.362v126.975l.001-.001z" fill="#ff9f04"/><path d="m256 192.801h-.001v174.601h.001c48.137 0 87.3-39.163 87.3-87.301s-39.163-87.3-87.3-87.3z" fill="#ffbeaa"/></svg>