<svg id="Capa_1" enable-background="new 0 0 512 512" height="512" viewBox="0 0 512 512" width="512" xmlns="http://www.w3.org/2000/svg"><path d="m412.657 64.891c-41.844-41.846-97.479-64.891-156.657-64.891s-114.814 23.047-156.658 64.891c-41.845 41.846-64.89 97.48-64.89 156.658s23.045 114.815 64.89 156.658l117.707 117.707c10.373 10.373 24.206 16.086 38.951 16.086 14.744 0 28.577-5.713 38.95-16.086l117.707-117.707c41.846-41.844 64.891-97.48 64.891-156.658 0-59.18-23.045-114.815-64.891-156.658z" fill="#ffd400"/><path d="m412.657 64.891c-41.844-41.846-97.479-64.891-156.657-64.891v512c14.744 0 28.577-5.713 38.95-16.086l117.707-117.707c41.846-41.844 64.891-97.48 64.891-156.658 0-59.18-23.045-114.815-64.891-156.658z" fill="#ff9f04"/><path d="m304.2 188.35c-8.284 0-15-6.717-15-15v-49.268h-66.4v49.268c0 8.283-6.716 15-15 15s-15-6.717-15-15v-64.268c0-8.283 6.716-15 15-15h96.4c8.284 0 15 6.717 15 15v64.268c0 8.283-6.716 15-15 15z" fill="#ca6d36"/><path d="m289.199 173.35c0 8.283 6.715 15 15 15 8.283 0 15-6.717 15-15v-64.268c0-8.283-6.717-15-15-15h-48.199v30h33.199z" fill="#b24d00"/><path d="m328.3 158.35h-144.6c-30.419 0-55.167 24.748-55.167 55.166v80.334c0 30.418 24.748 55.166 55.167 55.166h144.6c30.419 0 55.167-24.748 55.167-55.166v-80.334c0-30.418-24.748-55.166-55.167-55.166z" fill="#ff8a3c"/><path d="m328.301 158.35h-72.301v190.666h72.301c30.418 0 55.166-24.748 55.166-55.166v-80.334c0-30.42-24.748-55.166-55.166-55.166z" fill="#e56705"/><path d="m128.533 222.615h254.934v30h-254.934z" fill="#ca6d36"/><path d="m256 222.615h127.467v30h-127.467z" fill="#b24d00"/></svg>