<svg id="Capa_1" enable-background="new 0 0 512 512" height="512" viewBox="0 0 512 512" width="512" xmlns="http://www.w3.org/2000/svg"><path d="m215.833 0h-160.667c-30.418 0-55.166 24.748-55.166 55.166v96.4c0 30.42 24.748 55.166 55.166 55.166h33.2v49.268c0 8.283 6.716 15 15 15h64.267c8.284 0 15-6.717 15-15v-49.268h33.2c30.419 0 55.167-24.746 55.167-55.166v-96.4c0-30.418-24.748-55.166-55.167-55.166z" fill="#c5e1e6"/><path d="m215.833 0h-80.336v271h32.136c8.284 0 15-6.717 15-15v-49.268h33.2c30.419 0 55.167-24.746 55.167-55.166v-96.4c0-30.418-24.748-55.166-55.167-55.166z" fill="#8db9c4"/><path d="m464.866 305.268h-64.266-289.2-64.267c-8.284 0-15 6.715-15 15v176.732c0 8.283 6.716 15 15 15h64.267c8.284 0 15-6.717 15-15v-17.133h259.2v17.133c0 8.283 6.716 15 15 15h64.267c8.284 0 15-6.717 15-15v-176.732c-.001-8.286-6.717-15-15.001-15z" fill="#ca6d36"/><path d="m464.867 305.268h-64.267-144.6v174.6h129.6v17.132c0 8.285 6.716 15 15 15h64.268c8.284 0 15-6.715 15-15v-176.732c-.001-8.286-6.717-15-15.001-15z" fill="#b24d00"/><path d="m380.515 120.5c-41.491 0-75.248 33.756-75.248 75.25v60.25c0 8.283 6.716 15 15 15h120.5c8.284 0 15-6.717 15-15v-60.25c0-41.494-33.758-75.25-75.252-75.25z" fill="#3d5959"/><path d="m380.515 120.5v150.5h60.252c8.284 0 15-6.717 15-15v-60.25c0-41.494-33.758-75.25-75.252-75.25z" fill="#293939"/><path d="m464.866 241h-417.733c-25.989 0-47.133 21.145-47.133 47.133 0 25.99 21.144 47.135 47.133 47.135h417.733c25.989 0 47.134-21.145 47.134-47.135 0-25.988-21.145-47.133-47.134-47.133z" fill="#ff8a3c"/><path d="m464.867 241h-208.867v94.268h208.867c25.989 0 47.133-21.145 47.133-47.135 0-25.988-21.144-47.133-47.133-47.133z" fill="#e56705"/><path d="m380.515 0c-41.491 0-75.248 33.756-75.248 75.25 0 41.492 33.757 75.25 75.248 75.25 41.494 0 75.252-33.758 75.252-75.25 0-41.494-33.758-75.25-75.252-75.25z" fill="#a34f3e"/><path d="m380.515 0v150.5c41.494 0 75.252-33.758 75.252-75.25 0-41.494-33.758-75.25-75.252-75.25z" fill="#873f2e"/></svg>