<svg id="Capa_1" enable-background="new 0 0 512 512" height="512" viewBox="0 0 512 512" width="512" xmlns="http://www.w3.org/2000/svg"><path d="m497 376.5c0 22.092-18.072 40.167-40.163 40.167h-401.67c-22.092 0-40.167-18.075-40.167-40.167v-305.267c0-22.092 18.075-40.167 40.167-40.167h401.67c22.091 0 40.163 18.075 40.163 40.167z" fill="#e7f0ef"/><path d="m456.837 31.066h-200.819v385.601h200.819c22.091 0 40.163-18.075 40.163-40.167v-305.267c0-22.091-18.072-40.167-40.163-40.167z" fill="#c5e1e6"/><path d="m456.837 16.066h-401.67c-30.419 0-55.167 24.748-55.167 55.167v305.267c0 30.419 24.748 55.167 55.167 55.167h153.699v34.267h-81.399c-8.284 0-15 6.716-15 15s6.716 15 15 15h257.068c8.284 0 15-6.716 15-15s-6.716-15-15-15h-81.4v-34.267h153.702c30.417 0 55.163-24.748 55.163-55.167v-305.267c0-30.419-24.746-55.167-55.163-55.167zm25.163 360.434c0 13.877-11.288 25.167-25.163 25.167h-168.702-64.269-168.699c-13.877 0-25.167-11.29-25.167-25.167v-305.267c0-13.877 11.29-25.167 25.167-25.167h401.67c13.875 0 25.163 11.29 25.163 25.167z" fill="#c5e1e6"/><path d="m456.837 16.066h-200.819v30h200.819c13.875 0 25.163 11.29 25.163 25.167v305.267c0 13.877-11.288 25.167-25.163 25.167h-168.702-32.117v94.267h128.518c8.284 0 15-6.716 15-15s-6.716-15-15-15h-81.4v-34.267h153.702c30.417 0 55.163-24.748 55.163-55.167v-305.267c-.001-30.419-24.747-55.167-55.164-55.167z" fill="#8db9c4"/><g fill="#3d5959"><path d="m320.267 150.5h-96.4c-8.284 0-15-6.716-15-15s6.716-15 15-15h96.4c8.284 0 15 6.716 15 15s-6.716 15-15 15z"/><path d="m416.667 214.767h-192.801c-8.284 0-15-6.716-15-15s6.716-15 15-15h192.801c8.284 0 15 6.716 15 15s-6.716 15-15 15z"/><path d="m416.667 279.033h-192.801c-8.284 0-15-6.716-15-15s6.716-15 15-15h192.801c8.284 0 15 6.716 15 15s-6.716 15-15 15z"/><path d="m416.667 343.3h-321.334c-8.284 0-15-6.716-15-15s6.716-15 15-15h321.334c8.284 0 15 6.716 15 15s-6.716 15-15 15z"/></g><path d="m127.467 168.7c-25.99 0-47.134 21.144-47.134 47.133v32.134c0 8.284 6.716 15 15 15h64.267c8.284 0 15-6.716 15-15v-32.134c0-25.989-21.144-47.133-47.133-47.133z" fill="#ca6d36"/><path d="m127.467 104.434c-25.99 0-47.134 21.144-47.134 47.133s21.144 47.134 47.134 47.134c25.989 0 47.133-21.145 47.133-47.134s-21.144-47.133-47.133-47.133z" fill="#ffcdbe"/><path d="m335.267 135.5c0-8.284-6.716-15-15-15h-64.249v30h64.249c8.284 0 15-6.716 15-15z" fill="#293939"/><path d="m431.667 199.767c0-8.284-6.716-15-15-15h-160.649v30h160.649c8.284 0 15-6.716 15-15z" fill="#293939"/><path d="m431.667 264.033c0-8.284-6.716-15-15-15h-160.649v30h160.649c8.284 0 15-6.716 15-15z" fill="#293939"/><path d="m416.667 343.3c8.284 0 15-6.716 15-15s-6.716-15-15-15h-160.649v30z" fill="#293939"/></svg>