<svg id="Capa_1" enable-background="new 0 0 512 512" height="512" viewBox="0 0 512 512" width="512" xmlns="http://www.w3.org/2000/svg"><path d="m351.26 431.241-31.817-318.141 18.418-55.252c4.872-14.619 3.089-29.354-4.892-40.427-7.981-11.071-21.395-17.421-36.803-17.421h-80.332c-15.411 0-28.826 6.352-36.808 17.425-7.979 11.073-9.761 25.808-4.888 40.424l18.418 55.251-31.816 318.141c-.506 5.059 1.586 10.029 5.555 13.205l80.334 64.267c2.74 2.191 6.056 3.287 9.371 3.287s6.631-1.096 9.371-3.287l80.334-64.267c3.969-3.175 6.061-8.146 5.555-13.205z" fill="#ff5b5b"/><path d="m351.26 431.241-31.817-318.141 18.418-55.252c4.872-14.619 3.089-29.354-4.892-40.427-7.981-11.071-21.395-17.421-36.803-17.421h-40.179v511.999c.004 0 .009.001.013.001 3.315 0 6.631-1.096 9.371-3.287l80.334-64.267c3.969-3.175 6.061-8.146 5.555-13.205z" fill="#ff0059"/><path d="m319.443 113.1 5.567-16.699h-138.02l5.567 16.699-1.331 13.301h129.548z" fill="#e7f0ef"/><path d="m319.443 113.1 5.567-16.699h-69.023v30h64.787z" fill="#c5e1e6"/></svg>