<svg id="Capa_1" enable-background="new 0 0 512 512" height="512" viewBox="0 0 512 512" width="512" xmlns="http://www.w3.org/2000/svg"><path d="m497 128.533h-482c-8.284 0-15 6.716-15 15v313.3c0 30.419 24.748 55.167 55.168 55.167h401.665c30.419 0 55.167-24.748 55.167-55.167v-313.3c0-8.284-6.716-15-15-15z" fill="#e7f0ef"/><path d="m497 128.533h-241v383.467h200.833c30.419 0 55.167-24.747 55.167-55.166v-313.301c0-8.284-6.716-15-15-15z" fill="#c5e1e6"/><path d="m456.833 0h-401.665c-30.42 0-55.168 24.748-55.168 55.167v88.366h512v-88.366c0-30.419-24.748-55.167-55.167-55.167z" fill="#0065a3"/><path d="m512 55.168c0-30.42-24.748-55.168-55.167-55.168h-200.833v143.533h256z" fill="#005183"/><path d="m79.268 94.266c-3.951 0-7.82-1.6-10.61-4.39-2.79-2.8-4.39-6.66-4.39-10.61 0-3.949 1.6-7.81 4.39-10.609 2.79-2.79 6.659-4.391 10.61-4.391 3.949 0 7.81 1.601 10.6 4.391 2.8 2.8 4.4 6.66 4.4 10.609 0 3.95-1.601 7.811-4.4 10.61-2.791 2.79-6.651 4.39-10.6 4.39z" fill="#ff5b5b"/><path d="m207.797 94.266c-3.949 0-7.811-1.6-10.609-4.39-2.791-2.79-4.391-6.66-4.391-10.61 0-3.949 1.6-7.81 4.391-10.609 2.799-2.79 6.66-4.391 10.609-4.391 3.95 0 7.82 1.601 10.61 4.391 2.79 2.8 4.39 6.66 4.39 10.609 0 3.95-1.6 7.82-4.39 10.61s-6.66 4.39-10.61 4.39z" fill="#54e360"/><path d="m143.537 94.266c-3.95 0-7.82-1.6-10.609-4.39-2.791-2.8-4.391-6.66-4.391-10.61 0-3.949 1.6-7.81 4.391-10.609 2.789-2.79 6.659-4.391 10.609-4.391 3.939 0 7.811 1.601 10.6 4.391 2.791 2.8 4.4 6.66 4.4 10.609 0 3.95-1.609 7.811-4.4 10.61-2.789 2.79-6.66 4.39-10.6 4.39z" fill="#ffd400"/><path d="m432.734 94.267h-160.668c-8.284 0-15-6.716-15-15s6.716-15 15-15h160.668c8.284 0 15 6.716 15 15s-6.715 15-15 15z" fill="#c5e1e6"/><path d="m119.433 257.066c-25.989 0-47.133 21.145-47.133 47.134v48.201c0 8.283 6.716 15 15 15h64.267c8.284 0 15-6.717 15-15v-48.201c-.001-25.989-21.145-47.134-47.134-47.134z" fill="#8db9c4"/><path d="m231.896 238.866c-3.949 0-7.81-1.601-10.6-4.391-2.8-2.79-4.4-6.659-4.4-10.609s1.601-7.811 4.4-10.61c2.79-2.79 6.65-4.39 10.6-4.39 3.951 0 7.82 1.6 10.61 4.39s4.39 6.66 4.39 10.61-1.6 7.819-4.39 10.609c-2.789 2.791-6.658 4.391-10.61 4.391z" fill="#ffd400"/><path d="m296.167 238.866c-3.95 0-7.819-1.601-10.61-4.391-2.789-2.79-4.39-6.659-4.39-10.609s1.601-7.811 4.39-10.61c2.791-2.79 6.66-4.39 10.61-4.39s7.81 1.6 10.601 4.39c2.799 2.8 4.399 6.66 4.399 10.61s-1.601 7.819-4.399 10.609c-2.791 2.791-6.651 4.391-10.601 4.391z" fill="#ff641a"/><path d="m231.896 303.136c-3.939 0-7.81-1.6-10.6-4.399-2.8-2.79-4.4-6.66-4.4-10.601 0-3.95 1.601-7.81 4.4-10.609 2.79-2.79 6.65-4.391 10.6-4.391 3.951 0 7.82 1.601 10.61 4.391s4.39 6.659 4.39 10.609-1.6 7.811-4.39 10.601c-2.799 2.799-6.658 4.399-10.61 4.399z" fill="#54e360"/><path d="m296.167 303.136c-3.95 0-7.81-1.6-10.61-4.399-2.789-2.79-4.39-6.66-4.39-10.601 0-3.95 1.601-7.819 4.39-10.609 2.801-2.79 6.66-4.391 10.61-4.391s7.81 1.601 10.61 4.391c2.789 2.8 4.39 6.659 4.39 10.609 0 3.94-1.601 7.811-4.39 10.601-2.8 2.799-6.67 4.399-10.61 4.399z" fill="#ff9f00"/><path d="m231.896 367.397c-3.949 0-7.819-1.601-10.609-4.391s-4.391-6.66-4.391-10.609c0-3.94 1.601-7.811 4.391-10.601 2.8-2.8 6.67-4.399 10.609-4.399 3.951 0 7.82 1.6 10.61 4.399 2.79 2.79 4.39 6.65 4.39 10.601 0 3.949-1.6 7.819-4.39 10.609-2.789 2.79-6.649 4.391-10.61 4.391z" fill="#ffd400"/><path d="m296.167 367.397c-3.95 0-7.819-1.601-10.61-4.391-2.789-2.79-4.39-6.66-4.39-10.609 0-3.95 1.601-7.811 4.39-10.601 2.791-2.8 6.66-4.399 10.61-4.399s7.81 1.6 10.601 4.399c2.799 2.79 4.399 6.66 4.399 10.601 0 3.949-1.601 7.819-4.399 10.609-2.782 2.79-6.651 4.391-10.601 4.391z" fill="#ff641a"/><path d="m231.896 431.666c-3.939 0-7.81-1.6-10.609-4.39-2.79-2.79-4.391-6.66-4.391-10.61s1.601-7.81 4.391-10.6c2.8-2.801 6.66-4.4 10.609-4.4 3.951 0 7.82 1.6 10.61 4.4 2.79 2.779 4.39 6.649 4.39 10.6 0 3.95-1.6 7.82-4.39 10.61-2.789 2.79-6.658 4.39-10.61 4.39z" fill="#54e360"/><path d="m296.167 431.666c-3.95 0-7.81-1.6-10.61-4.39-2.789-2.79-4.39-6.66-4.39-10.61s1.601-7.82 4.39-10.6c2.791-2.801 6.66-4.4 10.61-4.4s7.81 1.6 10.61 4.4c2.789 2.779 4.39 6.649 4.39 10.6 0 3.95-1.601 7.82-4.39 10.61-2.8 2.79-6.67 4.39-10.61 4.39z" fill="#ff9f00"/><path d="m360.438 238.866c-3.951 0-7.82-1.601-10.61-4.391s-4.39-6.659-4.39-10.609 1.6-7.811 4.39-10.61c2.79-2.79 6.659-4.39 10.61-4.39 3.94 0 7.81 1.6 10.6 4.39 2.79 2.8 4.4 6.66 4.4 10.61s-1.61 7.819-4.4 10.609c-2.791 2.791-6.661 4.391-10.6 4.391z" fill="#005183"/><path d="m424.697 238.866c-3.95 0-7.811-1.601-10.61-4.391-2.79-2.79-4.39-6.659-4.39-10.609s1.6-7.811 4.39-10.61c2.8-2.79 6.67-4.39 10.61-4.39 3.949 0 7.82 1.6 10.609 4.39 2.791 2.8 4.391 6.66 4.391 10.61s-1.6 7.819-4.391 10.609c-2.788 2.791-6.659 4.391-10.609 4.391z" fill="#678c97"/><path d="m360.438 303.136c-3.951 0-7.82-1.6-10.61-4.399-2.79-2.79-4.399-6.65-4.399-10.601 0-3.95 1.609-7.819 4.399-10.609s6.659-4.391 10.61-4.391c3.949 0 7.81 1.601 10.6 4.391s4.4 6.659 4.4 10.609-1.61 7.811-4.4 10.601c-2.791 2.799-6.661 4.399-10.6 4.399z" fill="#b24d00"/><path d="m424.697 303.136c-3.94 0-7.811-1.6-10.61-4.399-2.79-2.79-4.39-6.66-4.39-10.601 0-3.95 1.6-7.819 4.39-10.609 2.8-2.79 6.66-4.391 10.61-4.391 3.949 0 7.81 1.601 10.609 4.391 2.791 2.79 4.391 6.659 4.391 10.609 0 3.94-1.6 7.811-4.391 10.601-2.799 2.799-6.659 4.399-10.609 4.399z" fill="#ff0059"/><path d="m360.438 367.397c-3.951 0-7.82-1.601-10.61-4.391s-4.39-6.66-4.39-10.609c0-3.94 1.6-7.811 4.39-10.601 2.79-2.8 6.659-4.399 10.61-4.399 3.94 0 7.81 1.6 10.6 4.399 2.79 2.79 4.4 6.66 4.4 10.601 0 3.949-1.61 7.819-4.4 10.609-2.791 2.79-6.651 4.391-10.6 4.391z" fill="#005183"/><path d="m424.697 367.397c-3.95 0-7.82-1.601-10.6-4.391-2.801-2.79-4.4-6.66-4.4-10.609 0-3.94 1.6-7.811 4.4-10.601 2.789-2.8 6.649-4.399 10.6-4.399 3.949 0 7.82 1.6 10.609 4.399 2.791 2.79 4.391 6.65 4.391 10.601 0 3.949-1.6 7.819-4.391 10.609-2.788 2.79-6.659 4.391-10.609 4.391z" fill="#678c97"/><path d="m360.438 431.666c-3.951 0-7.82-1.6-10.61-4.39s-4.399-6.66-4.399-10.61 1.609-7.82 4.399-10.6c2.79-2.801 6.65-4.4 10.61-4.4 3.94 0 7.81 1.6 10.6 4.4 2.79 2.79 4.391 6.649 4.391 10.6 0 3.95-1.601 7.81-4.391 10.61-2.791 2.79-6.661 4.39-10.6 4.39z" fill="#b24d00"/><path d="m424.697 431.666c-3.95 0-7.811-1.6-10.6-4.39-2.801-2.79-4.4-6.66-4.4-10.61s1.6-7.82 4.4-10.6c2.789-2.801 6.649-4.4 10.6-4.4 3.949 0 7.82 1.6 10.609 4.4 2.791 2.79 4.391 6.649 4.391 10.6 0 3.95-1.6 7.82-4.391 10.61-2.788 2.79-6.659 4.39-10.609 4.39z" fill="#ff0059"/><path d="m151.566 431.667h-64.266c-8.284 0-15-6.716-15-15s6.716-15 15-15h64.267c8.284 0 15 6.716 15 15-.001 8.284-6.716 15-15.001 15z" fill="#3d5959"/><path d="m119.433 192.8c-25.989 0-47.133 21.145-47.133 47.134s21.144 47.133 47.133 47.133 47.134-21.143 47.134-47.133c-.001-25.99-21.145-47.134-47.134-47.134z" fill="#fdd1a3"/></svg>