<svg id="Capa_1" enable-background="new 0 0 512 512" height="512" viewBox="0 0 512 512" width="512" xmlns="http://www.w3.org/2000/svg"><path d="m456.834 96.399h-160.667c-15.638 0-33.693-13.013-38.638-27.848l-6.73-20.19c-9.039-27.118-38.513-48.361-67.099-48.361h-128.533c-30.419 0-55.167 24.747-55.167 55.166v192.801c0 8.284 6.716 15 15 15s15-6.716 15-15c0-13.877 11.29-25.167 25.167-25.167h401.667c13.877 0 25.166 11.29 25.166 25.167 0 8.284 6.716 15 15 15s15-6.716 15-15v-96.4c0-30.42-24.748-55.168-55.166-55.168z" fill="#ff9f00"/><path d="m456.834 96.399h-160.667c-15.638 0-33.693-13.013-38.638-27.848l-1.529-4.587v158.836h200.834c13.877 0 25.166 11.29 25.166 25.167 0 8.284 6.716 15 15 15s15-6.716 15-15v-96.4c0-30.42-24.748-55.168-55.166-55.168z" fill="#ff641a"/><path d="m456.834 192.8h-401.667c-30.419 0-55.167 24.748-55.167 55.167v208.866c0 30.419 24.748 55.167 55.167 55.167h401.667c30.418 0 55.166-24.748 55.166-55.167v-208.866c0-30.419-24.748-55.167-55.166-55.167z" fill="#ffd400"/><path d="m456.834 192.8h-200.834v319.2h200.834c30.418 0 55.166-24.748 55.166-55.167v-208.866c0-30.419-24.748-55.167-55.166-55.167z" fill="#ff9f04"/></svg>