<svg id="Capa_1" enable-background="new 0 0 512 512" height="512" viewBox="0 0 512 512" width="512" xmlns="http://www.w3.org/2000/svg"><path d="m459.406 132.928-128.534-128.533c-2.812-2.815-6.628-4.395-10.606-4.395h-216.9c-30.419 0-55.166 24.748-55.166 55.166v401.668c0 30.418 24.747 55.166 55.166 55.166h305.268c30.419 0 55.166-24.748 55.166-55.166v-313.301c-.001-3.978-1.582-7.793-4.394-10.605z" fill="#e7f0ef"/><path d="m459.407 132.928-128.534-128.533c-2.812-2.815-6.628-4.395-10.606-4.395h-64.266v512h152.632c30.419 0 55.167-24.748 55.167-55.166v-313.301c0-3.978-1.58-7.793-4.393-10.605z" fill="#c5e1e6"/><path d="m272.066 289.197-32.133.004c-9.447 0-17.134-7.688-17.134-17.135 0-9.445 7.687-17.129 17.134-17.129l64.268-.004c8.284 0 15-6.717 14.999-15-.001-8.285-6.716-15-15.001-15l-33.199.002v-17.135c0-8.285-6.716-15-15-15s-15 6.715-15 15v17.137h-1.066c-25.99 0-47.134 21.143-47.134 47.129 0 25.99 21.144 47.135 47.136 47.135l32.129-.004c9.448.002 17.136 7.689 17.136 17.137s-7.685 17.133-17.132 17.133h-64.269c-8.284 0-15 6.717-15 15 0 8.285 6.716 15 15 15h33.2v17.133c0 8.285 6.716 15 15 15s15-6.715 15-15v-17.133h1.068c25.988 0 47.132-21.145 47.132-47.133 0-25.986-21.142-47.131-47.134-47.137z" fill="#54e360"/><path d="m459.407 132.928-128.534-128.533c-4.29-4.291-10.741-5.574-16.347-3.252-5.605 2.322-9.26 7.791-9.26 13.857v88.367c0 30.42 24.747 55.166 55.166 55.166h88.368c6.066 0 11.537-3.654 13.858-9.26 2.322-5.605 1.039-12.056-3.251-16.345z" fill="#8db9c4"/><g fill="#1fbf66"><path d="m304.201 254.934c8.284 0 15-6.717 14.999-15-.001-8.285-6.716-15-15.001-15l-33.199.002v-17.135c0-8.283-6.715-15-14.998-15v62.135z"/><path d="m272.066 289.197-16.064.002v30l16.063-.002c9.448.002 17.136 7.689 17.136 17.137s-7.685 17.133-17.132 17.133h-16.066v62.133c8.283 0 14.998-6.715 14.998-15v-17.133h1.068c25.988 0 47.132-21.145 47.132-47.133-.001-25.986-21.143-47.131-47.135-47.137z"/></g></svg>