<svg id="Capa_1" enable-background="new 0 0 512 512" height="512" viewBox="0 0 512 512" width="512" xmlns="http://www.w3.org/2000/svg"><path d="m256 289.2c-34.85 0-63.201 28.351-63.201 63.199v70.68c0 3.978 1.58 7.794 4.394 10.606 2.813 2.814 6.628 4.394 10.606 4.394l96.4-.002c8.285 0 15-6.715 15-15v-70.678c0-34.848-28.351-63.199-63.199-63.199z" fill="#3d5959"/><path d="m256 289.2h-.001v148.878l48.2-.001c8.285 0 15-6.715 15-15v-70.678c0-34.848-28.351-63.199-63.199-63.199z" fill="#293939"/><path d="m256 192.8c-34.85 0-63.201 28.352-63.201 63.2s28.351 63.2 63.201 63.2c34.848 0 63.199-28.352 63.199-63.2s-28.351-63.2-63.199-63.2z" fill="#ffcdbe"/><path d="m256 192.8h-.001v126.4h.001c34.848 0 63.199-28.352 63.199-63.2s-28.351-63.2-63.199-63.2z" fill="#ffbeaa"/><path d="m437.02 74.98c-48.353-48.351-112.64-74.98-181.02-74.98-68.381 0-132.668 26.629-181.02 74.98-48.351 48.353-74.98 112.64-74.98 181.02s26.629 132.667 74.98 181.02c48.352 48.351 112.639 74.98 181.02 74.98 68.38 0 132.667-26.629 181.02-74.98 48.351-48.353 74.98-112.64 74.98-181.02s-26.629-132.667-74.98-181.02zm-68.553 196.02h48.565c-7.594 82.173-76.91 146.733-161.031 146.733-84.123 0-153.44-64.56-161.032-146.733h48.565c8.284 0 15-6.716 15-15s-6.716-15-15-15h-48.566c7.137-77.232 68.8-138.895 146.032-146.032v48.565c0 8.284 6.716 15 15 15s15-6.716 15-15v-48.565c77.232 7.138 138.894 68.8 146.031 146.032h-48.565c-8.284 0-15 6.716-15 15 .001 8.284 6.717 15 15.001 15z" fill="#ff5b5b"/><path d="m437.02 74.98c-48.353-48.351-112.64-74.98-181.02-74.98h-.001v158.533h.001c8.284 0 15-6.716 15-15v-48.565c77.232 7.138 138.894 68.8 146.031 146.032h-48.565c-8.284 0-15 6.716-15 15s6.716 15 15 15h48.565c-7.594 82.173-76.91 146.733-161.031 146.733h-.001v94.267h.001c68.38 0 132.667-26.629 181.02-74.98 48.351-48.353 74.98-112.64 74.98-181.02s-26.629-132.667-74.98-181.02z" fill="#ff0059"/></svg>