<svg id="Capa_1" enable-background="new 0 0 512 512" height="512" viewBox="0 0 512 512" width="512" xmlns="http://www.w3.org/2000/svg"><path d="m328.301 0h-144.601c-30.419 0-55.166 24.747-55.166 55.166v24.101c0 8.284 6.716 15 15 15s15-6.716 15-15h194.933c0 8.284 6.716 15 15 15s15-6.716 15-15v-24.101c0-30.419-24.748-55.166-55.166-55.166z" fill="#c5e1e6"/><path d="m328.301 0h-72.308v79.267h97.474c0 8.284 6.716 15 15 15s15-6.716 15-15v-24.101c0-30.419-24.748-55.166-55.166-55.166z" fill="#8db9c4"/><path d="m392.567 64.267h-273.133c-30.419 0-55.167 24.748-55.167 55.167v377.566c0 8.284 6.716 15 15 15h353.467c8.284 0 15-6.716 15-15v-377.566c-.001-30.419-24.748-55.167-55.167-55.167z" fill="#e7f0ef"/><path d="m392.567 64.267h-136.574v447.733h176.74c8.284 0 15-6.716 15-15v-377.566c0-30.419-24.747-55.167-55.166-55.167z" fill="#c5e1e6"/><g fill="#a8ebfa"><path d="m159.598 158.536c-3.951 0-7.811-1.601-10.601-4.39-2.8-2.801-4.399-6.66-4.399-10.61 0-3.96 1.6-7.82 4.399-10.61 2.78-2.79 6.649-4.39 10.601-4.39 3.949 0 7.819 1.6 10.609 4.39s4.391 6.66 4.391 10.61c0 3.939-1.601 7.81-4.391 10.61-2.79 2.79-6.66 4.39-10.609 4.39z"/><path d="m223.867 158.536c-3.95 0-7.811-1.601-10.61-4.39-2.79-2.801-4.39-6.66-4.39-10.61 0-3.96 1.6-7.82 4.39-10.61s6.66-4.39 10.61-4.39c3.949 0 7.82 1.6 10.609 4.39 2.791 2.79 4.391 6.66 4.391 10.61 0 3.939-1.6 7.81-4.391 10.61-2.798 2.79-6.66 4.39-10.609 4.39z"/><path d="m159.598 222.796c-3.951 0-7.811-1.6-10.601-4.39-2.8-2.79-4.399-6.66-4.399-10.61s1.6-7.81 4.399-10.6c2.79-2.8 6.649-4.4 10.601-4.4 3.949 0 7.819 1.601 10.609 4.4 2.79 2.79 4.391 6.66 4.391 10.6 0 3.95-1.601 7.82-4.391 10.61s-6.66 4.39-10.609 4.39z"/><path d="m223.867 222.796c-3.95 0-7.811-1.6-10.61-4.39-2.79-2.79-4.39-6.66-4.39-10.61 0-3.939 1.6-7.81 4.39-10.6 2.8-2.8 6.66-4.4 10.61-4.4 3.949 0 7.811 1.601 10.609 4.4 2.791 2.79 4.391 6.649 4.391 10.6s-1.6 7.82-4.391 10.61c-2.798 2.79-6.66 4.39-10.609 4.39z"/><path d="m159.598 287.066c-3.941 0-7.811-1.601-10.601-4.391s-4.39-6.66-4.39-10.609c0-3.95 1.6-7.811 4.39-10.61 2.79-2.79 6.66-4.39 10.601-4.39 3.949 0 7.809 1.6 10.609 4.39 2.79 2.8 4.391 6.67 4.391 10.61 0 3.949-1.601 7.81-4.391 10.609-2.8 2.791-6.66 4.391-10.609 4.391z"/><path d="m223.867 287.066c-3.95 0-7.811-1.601-10.61-4.391-2.79-2.8-4.39-6.66-4.39-10.609 0-3.94 1.6-7.811 4.39-10.61 2.8-2.79 6.66-4.39 10.61-4.39 3.949 0 7.811 1.6 10.609 4.39 2.791 2.8 4.391 6.66 4.391 10.61 0 3.949-1.6 7.81-4.391 10.609-2.798 2.791-6.66 4.391-10.609 4.391z"/><path d="m159.598 351.336c-3.951 0-7.811-1.6-10.601-4.4-2.8-2.789-4.399-6.649-4.399-10.6s1.6-7.82 4.399-10.61c2.79-2.79 6.649-4.39 10.601-4.39 3.949 0 7.819 1.6 10.609 4.39s4.391 6.66 4.391 10.61-1.601 7.811-4.391 10.6c-2.79 2.8-6.66 4.4-10.609 4.4z"/><path d="m223.867 351.336c-3.95 0-7.811-1.6-10.61-4.4-2.79-2.789-4.39-6.649-4.39-10.6s1.6-7.82 4.39-10.61c2.8-2.79 6.66-4.39 10.61-4.39 3.949 0 7.82 1.6 10.609 4.39 2.791 2.79 4.391 6.66 4.391 10.61s-1.6 7.811-4.391 10.6c-2.788 2.8-6.66 4.4-10.609 4.4z"/></g><path d="m288.137 158.536c-3.949 0-7.82-1.601-10.609-4.39-2.79-2.801-4.391-6.66-4.391-10.61 0-3.96 1.601-7.82 4.391-10.61 2.789-2.79 6.65-4.39 10.609-4.39 3.95 0 7.811 1.6 10.601 4.39 2.8 2.79 4.399 6.66 4.399 10.61 0 3.939-1.6 7.81-4.399 10.61-2.791 2.79-6.661 4.39-10.601 4.39z" fill="#76e2f8"/><path d="m352.397 158.536c-3.949 0-7.81-1.601-10.6-4.39-2.8-2.801-4.4-6.66-4.4-10.61 0-3.96 1.601-7.82 4.4-10.61 2.78-2.79 6.65-4.39 10.6-4.39 3.951 0 7.82 1.6 10.61 4.39s4.39 6.66 4.39 10.61c0 3.939-1.6 7.81-4.39 10.61-2.79 2.79-6.659 4.39-10.61 4.39z" fill="#76e2f8"/><path d="m288.137 222.796c-3.949 0-7.82-1.6-10.609-4.39-2.79-2.79-4.391-6.66-4.391-10.61s1.601-7.81 4.391-10.6c2.789-2.8 6.66-4.4 10.609-4.4 3.95 0 7.811 1.601 10.601 4.4 2.8 2.79 4.399 6.66 4.399 10.6 0 3.95-1.6 7.82-4.399 10.61-2.791 2.79-6.651 4.39-10.601 4.39z" fill="#76e2f8"/><path d="m352.397 222.796c-3.949 0-7.81-1.6-10.6-4.39-2.8-2.79-4.4-6.66-4.4-10.61 0-3.939 1.601-7.81 4.4-10.6 2.79-2.8 6.65-4.4 10.6-4.4 3.951 0 7.82 1.601 10.61 4.4 2.79 2.79 4.39 6.66 4.39 10.6 0 3.95-1.6 7.82-4.39 10.61s-6.659 4.39-10.61 4.39z" fill="#76e2f8"/><path d="m288.137 287.066c-3.949 0-7.82-1.601-10.609-4.391-2.79-2.79-4.391-6.66-4.391-10.609 0-3.95 1.601-7.811 4.391-10.61 2.789-2.79 6.66-4.39 10.609-4.39 3.94 0 7.811 1.6 10.601 4.39 2.8 2.8 4.399 6.66 4.399 10.61 0 3.949-1.6 7.819-4.399 10.609-2.791 2.791-6.661 4.391-10.601 4.391z" fill="#76e2f8"/><path d="m352.397 287.066c-3.94 0-7.81-1.601-10.6-4.391s-4.39-6.66-4.39-10.609c0-3.95 1.6-7.811 4.39-10.61 2.79-2.79 6.66-4.39 10.6-4.39 3.951 0 7.81 1.6 10.61 4.39 2.79 2.8 4.39 6.66 4.39 10.61 0 3.949-1.6 7.81-4.39 10.609-2.8 2.791-6.659 4.391-10.61 4.391z" fill="#76e2f8"/><path d="m288.137 351.336c-3.949 0-7.82-1.6-10.609-4.4-2.79-2.779-4.391-6.649-4.391-10.6s1.601-7.82 4.391-10.61c2.789-2.79 6.66-4.39 10.609-4.39 3.94 0 7.811 1.6 10.601 4.39 2.8 2.79 4.399 6.66 4.399 10.61s-1.6 7.811-4.399 10.6c-2.791 2.8-6.661 4.4-10.601 4.4z" fill="#76e2f8"/><path d="m352.397 351.336c-3.94 0-7.81-1.6-10.6-4.4-2.8-2.789-4.4-6.649-4.4-10.6s1.601-7.82 4.4-10.61c2.79-2.79 6.66-4.39 10.6-4.39 3.951 0 7.82 1.6 10.61 4.39s4.4 6.66 4.4 10.61-1.61 7.811-4.4 10.6c-2.79 2.8-6.659 4.4-10.61 4.4z" fill="#76e2f8"/><path d="m280.101 385.6h-48.2c-30.419 0-55.167 24.748-55.167 55.167v71.233h158.533v-71.233c0-30.419-24.747-55.167-55.166-55.167z" fill="#ff8a3c"/><path d="m335.267 512v-71.233c0-30.419-24.747-55.167-55.166-55.167h-24.107v126.4z" fill="#e56705"/></svg>