<svg id="Capa_1" enable-background="new 0 0 512 512" height="512" viewBox="0 0 512 512" width="512" xmlns="http://www.w3.org/2000/svg"><path d="m464.866 144.6h-120.705c2.08-5.313 3.223-11.093 3.223-17.133 0-25.989-21.144-47.133-47.134-47.133h-32.133c-31.383 0-62.187 8.381-89.084 24.236-23.569 13.894-43.641 33.176-58.481 56.096h-41.285c-8.284 0-15 6.716-15 15v160.668c0 8.284 6.716 15 15 15h41.285c14.84 22.921 34.912 42.202 58.481 56.096 26.896 15.855 57.701 24.236 89.084 24.236h64.267c25.989 0 47.133-21.143 47.133-47.133 0-6.04-1.143-11.82-3.223-17.132h4.29c25.989 0 47.133-21.145 47.133-47.134 0-12.405-4.818-23.709-12.682-32.135 7.863-8.425 12.682-19.727 12.682-32.133 0-6.04-1.143-11.82-3.223-17.133h40.372c25.989 0 47.134-21.144 47.134-47.132 0-25.99-21.145-47.134-47.134-47.134z" fill="#a34f3e"/><path d="m64.267 336.334c0 8.284 6.716 15 15 15h41.285c14.84 22.921 34.912 42.202 58.481 56.096 26.896 15.855 57.701 24.236 89.084 24.236h64.267c25.989 0 47.133-21.143 47.133-47.133 0-6.04-1.143-11.82-3.223-17.132h4.29c25.989 0 47.133-21.145 47.133-47.134 0-12.405-4.818-23.709-12.682-32.135h-350.768z" fill="#873f2e"/><path d="m15 160.666c-8.284 0-15 6.716-15 15v176.735c0 8.283 6.716 15 15 15h64.267c8.284 0 15-6.717 15-15v-191.735z" fill="#e7f0ef"/><path d="m0 264.034v88.367c0 8.283 6.716 15 15 15h64.267c8.284 0 15-6.717 15-15v-88.367z" fill="#c5e1e6"/></svg>